<svg xmlns="http://www.w3.org/2000/svg" xmlns:xlink="http://www.w3.org/1999/xlink" width="250" zoomAndPan="magnify" viewBox="0 0 187.5 187.499992" height="250" preserveAspectRatio="xMidYMid meet" version="1.0"><defs><g/><clipPath id="3c3eb31869"><path d="M 42.394531 41.742188 L 145.144531 41.742188 L 145.144531 108.492188 L 42.394531 108.492188 Z M 42.394531 41.742188 " clip-rule="nonzero"/></clipPath><clipPath id="1f0199a911"><path d="M 47 91.539062 L 141 91.539062 L 141 109 L 47 109 Z M 47 91.539062 " clip-rule="nonzero"/></clipPath><clipPath id="77e2d6d3bb"><path d="M 30.015625 112 L 157.515625 112 L 157.515625 136.539062 L 30.015625 136.539062 Z M 30.015625 112 " clip-rule="nonzero"/></clipPath><clipPath id="f3f2d50a82"><path d="M 84.179688 140.53125 L 87.929688 140.53125 L 87.929688 144.28125 L 84.179688 144.28125 Z M 84.179688 140.53125 " clip-rule="nonzero"/></clipPath><clipPath id="92e76f3255"><path d="M 99.882812 140.53125 L 103.632812 140.53125 L 103.632812 144.28125 L 99.882812 144.28125 Z M 99.882812 140.53125 " clip-rule="nonzero"/></clipPath><clipPath id="30c55b0ce8"><path d="M 90.894531 140.53125 L 96.894531 140.53125 L 96.894531 146.53125 L 90.894531 146.53125 Z M 90.894531 140.53125 " clip-rule="nonzero"/></clipPath></defs><g clip-path="url(#3c3eb31869)"><path fill="#ff0336" d="M 142.601562 49.910156 C 139.574219 44.152344 135.070312 40.5625 132.128906 42.097656 C 131.84375 42.246094 130.730469 42.828125 130.4375 42.980469 C 129.886719 43.277344 129.445312 43.6875 129.117188 44.21875 C 128.613281 44.234375 128.136719 44.355469 127.6875 44.589844 L 125.960938 45.492188 C 124.546875 46.230469 123.773438 47.882812 123.636719 50.003906 C 123.085938 49.917969 122.292969 50.328125 121.890625 50.617188 C 121.785156 50.695312 121.699219 50.792969 121.632812 50.90625 L 121.363281 51.390625 C 121.363281 51.390625 121.132812 51.351562 120.832031 51.328125 C 120.585938 51.308594 120.355469 51.363281 120.144531 51.488281 L 118.863281 52.207031 C 118.636719 52.46875 118.460938 52.757812 118.335938 53.078125 C 118.058594 52.988281 117.769531 52.945312 117.476562 52.945312 C 117.355469 52.953125 117.238281 52.988281 117.132812 53.054688 L 116.171875 53.667969 C 116.03125 53.757812 115.925781 53.882812 115.851562 54.035156 L 115.820312 54.109375 C 115.597656 54.597656 115.484375 55.109375 115.480469 55.644531 C 115.480469 55.894531 115.480469 56.152344 115.480469 56.417969 C 115.03125 56.125 114.554688 55.886719 114.050781 55.707031 C 114.027344 56.042969 113.984375 56.378906 113.925781 56.710938 C 114.496094 56.894531 115.019531 57.167969 115.496094 57.53125 C 115.511719 58.570312 115.605469 59.605469 115.773438 60.636719 C 115.8125 60.957031 115.957031 61.226562 116.203125 61.441406 L 115.457031 61.863281 C 115.058594 62.074219 115.144531 63.03125 115.652344 63.996094 C 116.160156 64.964844 116.898438 65.578125 117.300781 65.371094 L 118.636719 64.730469 C 119.582031 67.105469 119.785156 69.15625 119.097656 69.882812 C 119.085938 69.894531 119.082031 69.914062 119.09375 69.929688 C 119.101562 69.949219 119.117188 69.957031 119.136719 69.949219 C 119.222656 69.933594 119.300781 69.902344 119.378906 69.863281 C 120.496094 69.28125 120.484375 66.972656 119.480469 64.324219 L 120.082031 64.039062 C 121.273438 67.214844 121.179688 70.0625 119.691406 70.839844 C 117.910156 71.769531 114.8125 69.382812 112.773438 65.5 C 112.164062 64.359375 111.707031 63.160156 111.394531 61.90625 C 111.390625 61.902344 111.390625 61.898438 111.382812 61.894531 C 111.378906 61.894531 111.371094 61.894531 111.367188 61.902344 C 110.320312 63.09375 109.128906 64.117188 107.785156 64.964844 C 108.0625 65.859375 108.417969 66.722656 108.855469 67.550781 C 110.3125 70.320312 112.425781 72.34375 114.480469 73.1875 C 114.5 73.195312 114.507812 73.210938 114.503906 73.234375 C 114.5 73.257812 114.488281 73.269531 114.464844 73.273438 C 112.582031 73.472656 110.027344 71.488281 108.265625 68.355469 C 108.257812 68.339844 108.246094 68.335938 108.234375 68.34375 C 108.21875 68.347656 108.214844 68.355469 108.214844 68.371094 C 108.308594 68.925781 108.484375 70.742188 106.828125 70.855469 C 106.234375 70.875 105.652344 70.792969 105.085938 70.605469 C 105.074219 70.601562 105.0625 70.605469 105.054688 70.613281 C 105.046875 70.625 105.046875 70.636719 105.050781 70.648438 C 107.484375 74.617188 111.339844 76.683594 113.984375 75.300781 L 115.574219 74.46875 C 115.976562 74.257812 116.320312 73.972656 116.609375 73.621094 C 117.179688 73.613281 117.71875 73.480469 118.226562 73.21875 C 118.492188 73.078125 119.519531 72.542969 119.78125 72.40625 C 122.058594 71.214844 122.386719 67.691406 120.996094 63.882812 C 120.988281 63.859375 120.992188 63.84375 121.011719 63.835938 C 121.035156 63.824219 121.050781 63.828125 121.0625 63.84375 C 125.09375 69.15625 122.433594 73.839844 122.03125 78.253906 C 118.738281 77.203125 115.382812 78.75 115.382812 78.75 C 111.222656 75.035156 105.820312 76.832031 105.820312 76.832031 C 105.324219 75.351562 103.722656 74.609375 102.789062 72.277344 C 102.78125 72.257812 102.765625 72.25 102.746094 72.257812 C 100.851562 72.980469 99.808594 74.789062 99.367188 75.757812 C 99.34375 75.808594 99.308594 75.824219 99.261719 75.808594 C 99.210938 75.792969 99.191406 75.757812 99.199219 75.707031 C 99.839844 71.96875 102.777344 71.195312 102.777344 71.195312 C 103.007812 70.253906 103.113281 69.296875 103.089844 68.328125 C 103.089844 68.308594 103.097656 68.296875 103.117188 68.289062 C 103.132812 68.28125 103.148438 68.285156 103.160156 68.300781 C 104.046875 69.214844 105.878906 69.832031 106.839844 69.988281 C 106.921875 70.003906 107.003906 69.996094 107.082031 69.96875 C 107.164062 69.941406 107.230469 69.898438 107.289062 69.835938 C 107.347656 69.773438 107.386719 69.703125 107.40625 69.621094 C 107.429688 69.539062 107.429688 69.457031 107.410156 69.378906 C 107.035156 67.8125 106.382812 66.371094 105.449219 65.0625 C 105.449219 65.0625 113.023438 61.71875 113.023438 54.964844 C 113.023438 49.421875 108.113281 46.757812 109.21875 42.589844 C 109.222656 42.574219 109.21875 42.5625 109.207031 42.550781 C 109.195312 42.542969 109.183594 42.542969 109.171875 42.550781 C 107.242188 43.578125 106.875 44.992188 106.742188 46.476562 C 106.566406 48.460938 107.871094 50.132812 107.871094 52.300781 C 107.871094 56.515625 104.082031 57.753906 104.082031 57.753906 C 103.523438 56.699219 102.15625 56.949219 101.472656 57.753906 C 99.238281 56.390625 95.757812 56.453125 93.773438 57.878906 C 91.785156 56.453125 88.304688 56.390625 86.070312 57.753906 C 85.386719 56.949219 84.019531 56.699219 83.460938 57.753906 C 83.460938 57.753906 79.671875 56.515625 79.671875 52.300781 C 79.671875 50.132812 80.976562 48.460938 80.800781 46.476562 C 80.667969 44.992188 80.300781 43.578125 78.375 42.550781 C 78.363281 42.542969 78.347656 42.542969 78.335938 42.550781 C 78.324219 42.5625 78.320312 42.574219 78.328125 42.589844 C 79.433594 46.757812 74.519531 49.421875 74.519531 54.964844 C 74.519531 61.71875 82.097656 65.0625 82.097656 65.0625 C 81.160156 66.371094 80.507812 67.8125 80.136719 69.378906 C 80.117188 69.457031 80.117188 69.539062 80.136719 69.621094 C 80.160156 69.703125 80.199219 69.773438 80.253906 69.835938 C 80.3125 69.898438 80.382812 69.941406 80.460938 69.96875 C 80.539062 69.996094 80.621094 70.003906 80.703125 69.988281 C 81.667969 69.832031 83.496094 69.214844 84.382812 68.300781 C 84.398438 68.285156 84.410156 68.28125 84.429688 68.289062 C 84.445312 68.296875 84.453125 68.308594 84.453125 68.328125 C 84.433594 69.296875 84.535156 70.253906 84.769531 71.195312 C 84.769531 71.195312 87.703125 71.96875 88.34375 75.707031 C 88.355469 75.757812 88.335938 75.792969 88.285156 75.808594 C 88.234375 75.824219 88.199219 75.808594 88.179688 75.757812 C 87.738281 74.789062 86.695312 72.976562 84.800781 72.257812 C 84.777344 72.25 84.761719 72.257812 84.753906 72.277344 C 83.820312 74.609375 82.21875 75.351562 81.722656 76.832031 C 81.722656 76.832031 76.320312 75.035156 72.160156 78.75 C 72.160156 78.75 68.804688 77.203125 65.515625 78.253906 C 65.109375 73.839844 62.449219 69.160156 66.480469 63.847656 C 66.492188 63.828125 66.507812 63.824219 66.527344 63.835938 C 66.546875 63.84375 66.554688 63.863281 66.546875 63.882812 C 65.15625 67.695312 65.484375 71.214844 67.761719 72.40625 C 68.023438 72.542969 69.050781 73.078125 69.316406 73.21875 C 69.824219 73.480469 70.363281 73.617188 70.933594 73.625 C 71.222656 73.976562 71.566406 74.257812 71.96875 74.472656 L 73.558594 75.304688 C 76.199219 76.683594 80.058594 74.613281 82.488281 70.648438 C 82.496094 70.636719 82.492188 70.625 82.484375 70.617188 C 82.476562 70.605469 82.46875 70.601562 82.453125 70.605469 C 81.890625 70.792969 81.308594 70.875 80.714844 70.855469 C 79.054688 70.742188 79.234375 68.925781 79.324219 68.371094 C 79.328125 68.355469 79.324219 68.347656 79.308594 68.34375 C 79.292969 68.335938 79.285156 68.339844 79.277344 68.355469 C 77.515625 71.488281 74.957031 73.472656 73.074219 73.273438 C 73.054688 73.269531 73.039062 73.257812 73.039062 73.234375 C 73.035156 73.214844 73.042969 73.199219 73.0625 73.1875 C 75.117188 72.34375 77.230469 70.320312 78.6875 67.550781 C 79.121094 66.722656 79.480469 65.859375 79.753906 64.96875 C 78.414062 64.117188 77.21875 63.09375 76.171875 61.902344 C 76.171875 61.898438 76.164062 61.894531 76.160156 61.894531 C 76.152344 61.898438 76.148438 61.902344 76.148438 61.90625 C 75.835938 63.160156 75.378906 64.359375 74.769531 65.5 C 72.730469 69.382812 69.632812 71.773438 67.851562 70.839844 C 66.363281 70.0625 66.265625 67.214844 67.460938 64.039062 L 68.058594 64.328125 C 67.058594 66.972656 67.046875 69.28125 68.164062 69.863281 C 68.238281 69.902344 68.320312 69.933594 68.402344 69.953125 C 68.425781 69.957031 68.4375 69.949219 68.449219 69.933594 C 68.460938 69.914062 68.457031 69.898438 68.441406 69.882812 C 67.753906 69.15625 67.960938 67.105469 68.90625 64.730469 L 70.242188 65.371094 C 70.640625 65.582031 71.378906 64.964844 71.890625 64 C 72.398438 63.03125 72.484375 62.074219 72.082031 61.867188 L 71.339844 61.441406 C 71.585938 61.226562 71.726562 60.957031 71.769531 60.632812 C 71.9375 59.605469 72.027344 58.570312 72.042969 57.527344 C 72.519531 57.164062 73.042969 56.890625 73.613281 56.707031 C 73.558594 56.382812 73.515625 56.050781 73.488281 55.707031 C 72.984375 55.886719 72.507812 56.125 72.058594 56.417969 C 72.058594 56.152344 72.058594 55.890625 72.058594 55.640625 C 72.054688 55.109375 71.941406 54.597656 71.722656 54.109375 L 71.6875 54.035156 C 71.617188 53.882812 71.511719 53.757812 71.367188 53.667969 L 70.40625 53.058594 C 70.300781 52.992188 70.1875 52.953125 70.0625 52.945312 C 69.769531 52.949219 69.484375 52.992188 69.207031 53.078125 C 69.082031 52.757812 68.90625 52.46875 68.679688 52.210938 L 67.398438 51.488281 C 67.1875 51.363281 66.957031 51.308594 66.710938 51.328125 C 66.410156 51.351562 66.179688 51.390625 66.179688 51.390625 L 65.90625 50.90625 C 65.84375 50.792969 65.757812 50.695312 65.648438 50.617188 C 65.25 50.328125 64.453125 49.921875 63.90625 50.003906 C 63.769531 47.882812 62.996094 46.230469 61.578125 45.492188 L 59.851562 44.589844 C 59.40625 44.355469 58.929688 44.234375 58.421875 44.21875 C 58.09375 43.6875 57.652344 43.277344 57.101562 42.980469 C 56.8125 42.828125 55.695312 42.246094 55.410156 42.097656 C 52.46875 40.5625 47.964844 44.152344 44.941406 49.910156 C 41.914062 55.667969 41.515625 61.40625 44.457031 62.941406 C 44.738281 63.09375 45.855469 63.675781 46.148438 63.828125 C 46.703125 64.113281 47.296875 64.238281 47.921875 64.207031 C 48.21875 64.613281 48.589844 64.933594 49.035156 65.171875 L 50.761719 66.070312 C 53.574219 67.542969 57.933594 64.886719 60.941406 60.058594 C 60.960938 60.023438 60.992188 60.015625 61.027344 60.035156 C 61.066406 60.050781 61.078125 60.078125 61.066406 60.117188 C 60.503906 61.707031 59.421875 63.964844 56.84375 66.441406 C 56.074219 72.210938 49.996094 80.566406 54.429688 88.207031 C 54.4375 88.222656 54.449219 88.226562 54.464844 88.21875 C 54.480469 88.214844 54.488281 88.203125 54.484375 88.1875 C 54.328125 87.3125 53.691406 83.09375 55.269531 79.957031 C 55.277344 79.945312 55.289062 79.9375 55.304688 79.945312 C 55.320312 79.949219 55.328125 79.960938 55.324219 79.976562 C 55.125 80.875 54.546875 84.347656 55.859375 90.632812 C 55.949219 91.0625 56.164062 91.414062 56.503906 91.691406 C 56.84375 91.96875 57.234375 92.105469 57.671875 92.109375 L 57.6875 92.109375 C 58.785156 92.109375 59.773438 92.441406 60.652344 93.097656 C 62.542969 94.515625 66.285156 96.351562 70.566406 95.253906 C 70.628906 95.234375 70.671875 95.257812 70.691406 95.316406 C 71.777344 98.472656 73.359375 101.351562 75.445312 103.960938 C 75.445312 103.960938 75.554688 104.558594 75.757812 105.527344 C 80.4375 106.683594 93.335938 108.492188 93.765625 108.492188 C 94.195312 108.492188 107.09375 106.683594 111.773438 105.527344 C 111.976562 104.558594 112.085938 103.960938 112.085938 103.960938 C 114.171875 101.351562 115.753906 98.472656 116.839844 95.316406 C 116.859375 95.257812 116.902344 95.234375 116.964844 95.253906 C 121.246094 96.351562 124.988281 94.515625 126.875 93.097656 C 127.753906 92.441406 128.746094 92.109375 129.84375 92.109375 L 129.859375 92.109375 C 130.296875 92.105469 130.683594 91.96875 131.027344 91.691406 C 131.367188 91.417969 131.582031 91.066406 131.671875 90.636719 C 132.984375 84.347656 132.40625 80.875 132.203125 79.980469 C 132.199219 79.960938 132.207031 79.953125 132.222656 79.945312 C 132.238281 79.941406 132.25 79.945312 132.257812 79.960938 C 133.835938 83.09375 133.203125 87.3125 133.046875 88.1875 C 133.042969 88.203125 133.050781 88.214844 133.066406 88.21875 C 133.082031 88.226562 133.09375 88.222656 133.101562 88.207031 C 137.535156 80.566406 131.457031 72.210938 130.683594 66.441406 C 128.117188 63.980469 127.035156 61.726562 126.46875 60.140625 C 126.457031 60.101562 126.46875 60.070312 126.507812 60.050781 C 126.546875 60.035156 126.574219 60.042969 126.597656 60.078125 C 129.605469 64.894531 133.957031 67.542969 136.765625 66.074219 L 138.492188 65.171875 C 138.9375 64.933594 139.3125 64.613281 139.609375 64.207031 C 140.234375 64.238281 140.828125 64.113281 141.382812 63.828125 C 141.675781 63.675781 142.792969 63.09375 143.074219 62.941406 C 146.027344 61.40625 145.625 55.667969 142.601562 49.910156 Z M 103.933594 59.601562 C 106.820312 58.652344 108.921875 55.652344 108.878906 52.832031 C 108.824219 49.605469 107.480469 48.324219 107.449219 46.480469 C 107.4375 45.726562 107.65625 44.53125 108.484375 43.824219 C 108.496094 43.816406 108.507812 43.816406 108.519531 43.820312 C 108.53125 43.828125 108.535156 43.839844 108.53125 43.851562 C 107.824219 47.300781 111.898438 50.128906 111.296875 55.199219 C 110.621094 60.90625 105.078125 62.285156 103.984375 62.503906 C 103.953125 62.511719 103.941406 62.464844 103.96875 62.449219 C 109.710938 59.476562 110.003906 55.523438 110 54.703125 C 110 54.6875 109.992188 54.675781 109.972656 54.675781 C 109.957031 54.675781 109.949219 54.683594 109.945312 54.699219 C 108.402344 59.210938 104.796875 59.621094 103.9375 59.65625 C 103.921875 59.65625 103.914062 59.648438 103.910156 59.632812 C 103.910156 59.617188 103.917969 59.605469 103.933594 59.601562 Z M 104 65.5625 C 105.003906 65.980469 106.003906 67.367188 106.230469 68.53125 C 106.238281 68.570312 106.226562 68.605469 106.195312 68.632812 C 106.167969 68.664062 106.132812 68.671875 106.089844 68.664062 C 104.410156 68.355469 103.285156 67.367188 103.011719 66.417969 C 102.9375 66.125 103.015625 65.882812 103.242188 65.683594 C 103.46875 65.488281 103.722656 65.445312 104 65.5625 Z M 76.238281 55.199219 C 75.640625 50.128906 79.714844 47.300781 79.003906 43.851562 C 79.003906 43.839844 79.007812 43.828125 79.019531 43.824219 C 79.03125 43.816406 79.042969 43.816406 79.054688 43.824219 C 79.882812 44.53125 80.101562 45.726562 80.089844 46.480469 C 80.058594 48.324219 78.714844 49.605469 78.660156 52.832031 C 78.617188 55.652344 80.71875 58.652344 83.605469 59.601562 C 83.621094 59.605469 83.628906 59.617188 83.628906 59.632812 C 83.625 59.648438 83.617188 59.65625 83.601562 59.65625 C 82.742188 59.621094 79.136719 59.210938 77.59375 54.699219 C 77.582031 54.667969 77.539062 54.667969 77.539062 54.703125 C 77.535156 55.523438 77.828125 59.476562 83.566406 62.449219 C 83.582031 62.457031 83.589844 62.46875 83.585938 62.484375 C 83.578125 62.5 83.570312 62.507812 83.550781 62.503906 C 82.460938 62.285156 76.917969 60.90625 76.238281 55.199219 Z M 84.527344 66.417969 C 84.253906 67.367188 83.128906 68.355469 81.449219 68.664062 C 81.410156 68.671875 81.375 68.664062 81.34375 68.632812 C 81.3125 68.605469 81.300781 68.570312 81.308594 68.53125 C 81.535156 67.367188 82.535156 65.980469 83.539062 65.5625 C 83.816406 65.445312 84.070312 65.488281 84.296875 65.683594 C 84.527344 65.882812 84.601562 66.125 84.527344 66.417969 Z M 44.664062 61.023438 C 42.726562 60.011719 43.234375 55.238281 45.800781 50.359375 C 48.363281 45.484375 52.011719 42.347656 53.949219 43.359375 C 55.886719 44.371094 55.375 49.148438 52.8125 54.027344 C 50.25 58.90625 46.601562 62.039062 44.664062 61.023438 Z M 57.945312 56.707031 C 55.691406 60.992188 52.457031 63.835938 50.265625 63.632812 C 50.253906 63.628906 50.242188 63.621094 50.242188 63.605469 C 50.238281 63.59375 50.246094 63.582031 50.257812 63.578125 C 52.652344 62.425781 55.214844 59.785156 57.070312 56.25 C 58.925781 52.71875 59.648438 49.113281 59.234375 46.496094 C 59.230469 46.480469 59.238281 46.46875 59.25 46.464844 C 59.265625 46.457031 59.277344 46.460938 59.285156 46.472656 C 60.699219 48.148438 60.195312 52.425781 57.945312 56.707031 Z M 122.195312 57.519531 C 122.148438 57.519531 122.121094 57.496094 122.105469 57.449219 C 121.921875 56.851562 121.800781 56.242188 121.738281 55.621094 C 121.71875 55.460938 121.625 55.382812 121.464844 55.378906 C 121.304688 55.378906 121.214844 55.457031 121.191406 55.617188 C 121.117188 56.378906 121.105469 57.144531 121.160156 57.910156 C 121.160156 57.929688 121.15625 57.945312 121.148438 57.964844 C 120.667969 58.871094 119.113281 59.144531 118.988281 58.867188 C 118.824219 58.074219 118.714844 57.269531 118.660156 56.460938 C 118.625 56.191406 118.183594 56.242188 118.125 56.507812 C 117.957031 57.324219 118.023438 59.71875 118.023438 59.71875 C 117.726562 60.195312 117.019531 60.34375 116.757812 60.386719 C 116.691406 60.398438 116.65625 60.371094 116.644531 60.304688 C 116.386719 58.65625 116.300781 57 116.378906 55.335938 C 116.425781 55.015625 116.597656 54.5625 117.449219 54.160156 C 117.878906 54.179688 118.296875 54.25 118.707031 54.375 C 118.707031 54.375 118.964844 53.707031 119.039062 53.597656 C 119.449219 53.066406 119.984375 52.734375 120.648438 52.605469 C 120.871094 52.558594 121.84375 52.859375 121.84375 52.859375 L 122.21875 52.023438 C 122.546875 51.589844 122.984375 51.355469 123.53125 51.320312 C 123.597656 51.316406 123.632812 51.347656 123.636719 51.414062 C 123.722656 52.652344 123.945312 53.867188 124.3125 55.054688 C 124.347656 55.480469 124.332031 55.902344 124.265625 56.328125 C 123.949219 57 122.558594 57.539062 122.191406 57.523438 Z M 101.445312 67.339844 C 101.589844 67.929688 101.574219 68.96875 101.191406 69.453125 C 101.183594 69.460938 101.183594 69.472656 101.1875 69.480469 C 101.191406 69.492188 101.195312 69.496094 101.207031 69.496094 C 101.566406 69.550781 101.910156 69.5 102.238281 69.347656 C 102.25 69.339844 102.261719 69.339844 102.269531 69.351562 C 102.28125 69.359375 102.28125 69.371094 102.277344 69.382812 C 102.015625 69.910156 100.644531 71.273438 98.566406 70.445312 C 98.550781 70.4375 98.542969 70.429688 98.546875 70.414062 C 98.550781 70.398438 98.558594 70.386719 98.574219 70.386719 C 99.113281 70.359375 100.964844 70.066406 101.351562 67.347656 C 101.355469 67.320312 101.371094 67.308594 101.394531 67.304688 C 101.421875 67.304688 101.4375 67.316406 101.445312 67.339844 Z M 95.757812 80.175781 C 95.757812 80.28125 95.792969 80.375 95.855469 80.460938 C 95.898438 80.515625 95.929688 80.574219 95.941406 80.640625 C 95.957031 80.707031 95.953125 80.777344 95.9375 80.839844 C 95.917969 80.90625 95.886719 80.964844 95.839844 81.015625 C 95.792969 81.066406 95.738281 81.105469 95.671875 81.128906 C 94.402344 81.5625 93.136719 81.5625 91.867188 81.128906 C 91.804688 81.105469 91.746094 81.066406 91.699219 81.015625 C 91.65625 80.964844 91.621094 80.90625 91.605469 80.839844 C 91.585938 80.777344 91.582031 80.707031 91.597656 80.640625 C 91.609375 80.574219 91.640625 80.515625 91.683594 80.460938 C 91.75 80.375 91.78125 80.28125 91.78125 80.175781 C 91.75 78.96875 90.074219 79.152344 90.292969 80.144531 C 90.433594 80.792969 90.292969 80.949219 90.011719 80.949219 C 89.765625 80.949219 88.707031 79.742188 88.707031 79.339844 C 88.707031 78.972656 89.359375 78.65625 89.652344 77.660156 C 89.695312 77.554688 89.757812 77.460938 89.839844 77.378906 C 89.921875 77.296875 90.019531 77.234375 90.125 77.195312 C 90.234375 77.152344 90.34375 77.132812 90.460938 77.140625 C 90.574219 77.144531 90.683594 77.171875 90.789062 77.222656 C 91.738281 77.640625 92.730469 77.847656 93.769531 77.847656 C 94.808594 77.847656 95.800781 77.640625 96.75 77.222656 C 96.855469 77.171875 96.964844 77.144531 97.078125 77.140625 C 97.195312 77.132812 97.304688 77.152344 97.414062 77.195312 C 97.519531 77.234375 97.617188 77.296875 97.699219 77.378906 C 97.78125 77.460938 97.84375 77.554688 97.886719 77.660156 C 98.179688 78.65625 98.832031 78.972656 98.832031 79.339844 C 98.832031 79.742188 97.773438 80.949219 97.527344 80.949219 C 97.246094 80.949219 97.105469 80.792969 97.246094 80.144531 C 97.464844 79.152344 95.789062 78.96875 95.757812 80.175781 Z M 88.210938 69.058594 C 87.75 68.875 87.101562 68.289062 87.125 66.917969 C 87.125 66.898438 87.132812 66.890625 87.152344 66.886719 C 87.855469 66.78125 88.511719 66.914062 89.117188 67.289062 C 89.863281 67.832031 89.808594 68.820312 90 69.367188 C 90.007812 69.386719 90.003906 69.40625 89.984375 69.417969 C 89.964844 69.433594 89.949219 69.433594 89.929688 69.417969 C 89.40625 69.042969 88.652344 69.234375 88.210938 69.058594 Z M 97.539062 69.367188 C 97.730469 68.820312 97.679688 67.832031 98.421875 67.289062 C 99.027344 66.917969 99.683594 66.78125 100.386719 66.886719 C 100.40625 66.890625 100.414062 66.898438 100.414062 66.917969 C 100.4375 68.292969 99.789062 68.875 99.328125 69.058594 C 98.886719 69.234375 98.136719 69.042969 97.609375 69.417969 C 97.59375 69.433594 97.574219 69.433594 97.554688 69.417969 C 97.539062 69.40625 97.53125 69.386719 97.539062 69.367188 Z M 86.621094 59.234375 C 87.003906 59.171875 87.390625 59.171875 87.773438 59.230469 C 88.15625 59.292969 88.523438 59.410156 88.867188 59.589844 C 89.214844 59.765625 89.523438 59.992188 89.796875 60.265625 C 90.070312 60.542969 90.292969 60.851562 90.46875 61.199219 C 90.476562 61.214844 90.488281 61.21875 90.503906 61.214844 C 90.519531 61.207031 90.527344 61.199219 90.523438 61.179688 C 90.28125 59.125 88.414062 58.441406 87.886719 58.285156 C 87.863281 58.28125 87.851562 58.265625 87.851562 58.242188 C 87.851562 58.21875 87.863281 58.203125 87.882812 58.195312 C 91.078125 57 92.917969 58.628906 93.6875 59.730469 C 93.707031 59.761719 93.734375 59.773438 93.769531 59.773438 C 93.804688 59.773438 93.832031 59.761719 93.851562 59.730469 C 94.621094 58.628906 96.460938 57 99.65625 58.195312 C 99.675781 58.203125 99.6875 58.21875 99.6875 58.242188 C 99.6875 58.265625 99.675781 58.28125 99.652344 58.285156 C 99.121094 58.441406 97.257812 59.125 97.011719 61.179688 C 97.011719 61.199219 97.019531 61.207031 97.035156 61.214844 C 97.050781 61.21875 97.0625 61.214844 97.070312 61.199219 C 97.242188 60.851562 97.46875 60.542969 97.742188 60.265625 C 98.015625 59.992188 98.324219 59.765625 98.667969 59.589844 C 99.015625 59.410156 99.378906 59.292969 99.765625 59.230469 C 100.148438 59.171875 100.53125 59.171875 100.914062 59.234375 C 100.957031 59.238281 100.96875 59.257812 100.953125 59.296875 C 100.457031 60.933594 100.355469 62.597656 100.65625 64.285156 C 100.660156 64.308594 100.652344 64.324219 100.632812 64.335938 C 99.914062 64.726562 99.308594 65.242188 98.808594 65.886719 C 98.792969 65.910156 98.773438 65.914062 98.75 65.902344 C 98.730469 65.890625 98.71875 65.871094 98.726562 65.847656 C 98.953125 65.054688 99.386719 64.402344 100.027344 63.882812 C 100.039062 63.875 100.039062 63.863281 100.035156 63.851562 C 100.027344 63.839844 100.019531 63.832031 100.003906 63.835938 C 99.058594 63.988281 96.714844 65.773438 97.433594 66.550781 C 97.433594 66.550781 95.042969 70.453125 93.851562 68.625 C 93.832031 68.59375 93.804688 68.578125 93.769531 68.578125 C 93.730469 68.578125 93.703125 68.59375 93.683594 68.625 C 92.492188 70.453125 90.105469 66.550781 90.105469 66.550781 C 90.824219 65.773438 88.480469 63.988281 87.53125 63.835938 C 87.515625 63.832031 87.507812 63.839844 87.503906 63.851562 C 87.496094 63.863281 87.5 63.875 87.511719 63.882812 C 88.148438 64.402344 88.582031 65.058594 88.808594 65.847656 C 88.816406 65.871094 88.808594 65.890625 88.785156 65.902344 C 88.761719 65.914062 88.742188 65.910156 88.726562 65.886719 C 88.226562 65.242188 87.621094 64.726562 86.90625 64.335938 C 86.882812 64.324219 86.875 64.308594 86.878906 64.285156 C 87.179688 62.597656 87.082031 60.933594 86.582031 59.296875 C 86.566406 59.257812 86.582031 59.234375 86.621094 59.234375 Z M 85.261719 69.382812 C 85.257812 69.371094 85.257812 69.359375 85.269531 69.351562 C 85.277344 69.339844 85.289062 69.339844 85.300781 69.347656 C 85.628906 69.5 85.972656 69.550781 86.332031 69.496094 C 86.34375 69.496094 86.347656 69.492188 86.351562 69.480469 C 86.355469 69.472656 86.355469 69.460938 86.347656 69.453125 C 85.964844 68.96875 85.945312 67.929688 86.09375 67.339844 C 86.101562 67.316406 86.117188 67.304688 86.144531 67.304688 C 86.167969 67.308594 86.183594 67.320312 86.1875 67.347656 C 86.574219 70.066406 88.425781 70.359375 88.964844 70.386719 C 88.980469 70.390625 88.988281 70.398438 88.992188 70.414062 C 88.992188 70.429688 88.988281 70.441406 88.972656 70.445312 C 86.898438 71.273438 85.527344 69.910156 85.261719 69.382812 Z M 63.226562 55.054688 C 63.59375 53.867188 63.820312 52.65625 63.902344 51.414062 C 63.90625 51.347656 63.945312 51.320312 64.011719 51.324219 C 64.554688 51.355469 64.996094 51.589844 65.324219 52.023438 L 65.695312 52.859375 C 65.695312 52.859375 66.667969 52.558594 66.894531 52.609375 C 67.554688 52.738281 68.09375 53.066406 68.503906 53.597656 C 68.578125 53.707031 68.832031 54.378906 68.832031 54.378906 C 69.242188 54.253906 69.664062 54.183594 70.089844 54.164062 C 70.945312 54.566406 71.117188 55.019531 71.164062 55.339844 C 71.242188 57.003906 71.152344 58.660156 70.894531 60.304688 C 70.886719 60.371094 70.851562 60.398438 70.78125 60.390625 C 70.519531 60.347656 69.816406 60.195312 69.515625 59.722656 C 69.515625 59.722656 69.585938 57.328125 69.414062 56.507812 C 69.359375 56.242188 68.917969 56.191406 68.882812 56.460938 C 68.828125 57.273438 68.71875 58.074219 68.554688 58.871094 C 68.429688 59.148438 66.875 58.875 66.394531 57.96875 C 66.382812 57.949219 66.378906 57.933594 66.382812 57.914062 C 66.4375 57.148438 66.425781 56.382812 66.351562 55.621094 C 66.328125 55.460938 66.234375 55.382812 66.074219 55.382812 C 65.914062 55.386719 65.824219 55.464844 65.800781 55.625 C 65.742188 56.246094 65.621094 56.855469 65.433594 57.453125 C 65.421875 57.5 65.390625 57.523438 65.347656 57.523438 C 64.980469 57.539062 63.589844 57 63.277344 56.332031 C 63.210938 55.910156 63.195312 55.484375 63.226562 55.054688 Z M 61.613281 82.132812 C 61.058594 80.949219 61.195312 78.820312 61.277344 77.78125 C 61.273438 77.765625 61.265625 77.757812 61.253906 77.753906 C 61.238281 77.75 61.226562 77.753906 61.21875 77.765625 C 60.675781 78.851562 60.617188 80.359375 60.710938 81.683594 C 60.714844 81.699219 60.707031 81.710938 60.6875 81.714844 C 60.671875 81.71875 60.660156 81.710938 60.65625 81.695312 C 58.734375 76.257812 61.875 67.796875 62.667969 65.972656 C 62.675781 65.949219 62.691406 65.941406 62.71875 65.949219 C 62.742188 65.957031 62.75 65.972656 62.742188 65.996094 C 61.96875 69.625 64.53125 76.222656 64.332031 79.867188 C 64.3125 80.71875 64.089844 81.515625 63.65625 82.253906 C 63.40625 82.636719 63.054688 82.816406 62.597656 82.789062 C 62.144531 82.761719 61.816406 82.542969 61.613281 82.132812 Z M 73.601562 83.101562 C 72.683594 82.164062 71.886719 82.160156 71.59375 82.195312 C 71.578125 82.199219 71.566406 82.207031 71.566406 82.222656 C 71.566406 82.238281 71.574219 82.25 71.589844 82.25 C 72.773438 82.648438 73.640625 85.378906 71.472656 85.378906 C 69.417969 85.378906 67.675781 82.917969 67.410156 82.519531 C 67.402344 82.511719 67.394531 82.507812 67.378906 82.507812 C 67.367188 82.511719 67.359375 82.519531 67.359375 82.53125 C 67.09375 83.679688 66.683594 84.773438 66.132812 85.8125 C 66.828125 86.582031 67.636719 87.203125 68.566406 87.671875 C 69.492188 88.136719 70.476562 88.421875 71.511719 88.523438 C 71.546875 88.523438 71.542969 88.578125 71.507812 88.582031 C 66.054688 89.230469 64.207031 86.492188 64.207031 86.492188 C 65.175781 84.542969 65.667969 82.476562 65.679688 80.300781 C 70.816406 78.496094 73.601562 82.289062 73.648438 83.082031 C 73.652344 83.109375 73.617188 83.117188 73.601562 83.101562 Z M 74.179688 79.886719 C 79.753906 78.464844 82.109375 81.550781 82.21875 82.15625 C 82.34375 82.839844 81.90625 83.644531 81.039062 83.457031 C 80.417969 83.324219 78.925781 81.90625 77.816406 81.675781 C 77.804688 81.671875 77.792969 81.675781 77.785156 81.6875 C 77.78125 81.699219 77.78125 81.710938 77.789062 81.722656 C 78.128906 82.207031 78.347656 82.742188 78.441406 83.324219 C 78.539062 83.910156 78.5 84.488281 78.332031 85.054688 C 78.328125 85.066406 78.320312 85.074219 78.304688 85.074219 C 78.292969 85.074219 78.28125 85.066406 78.277344 85.054688 C 77.683594 83.375 76.3125 81.1875 74.171875 79.9375 C 74.160156 79.929688 74.15625 79.921875 74.160156 79.910156 C 74.160156 79.894531 74.167969 79.886719 74.179688 79.886719 Z M 80.472656 101.785156 C 79.914062 101.484375 77.726562 100.222656 76.660156 98.367188 C 76.648438 98.347656 76.632812 98.339844 76.613281 98.347656 C 76.59375 98.355469 76.582031 98.367188 76.589844 98.390625 C 76.671875 98.945312 77.082031 100.671875 79.109375 103.125 C 79.121094 103.136719 79.121094 103.148438 79.109375 103.164062 C 79.097656 103.175781 79.085938 103.175781 79.074219 103.167969 C 78.21875 102.570312 74.335938 99.5625 74.691406 94.570312 C 74.695312 94.539062 74.738281 94.53125 74.75 94.558594 C 74.960938 95.175781 75.316406 95.691406 75.820312 96.109375 C 75.828125 96.117188 75.839844 96.117188 75.851562 96.113281 C 75.863281 96.105469 75.867188 96.097656 75.867188 96.082031 C 75.78125 95.6875 75.40625 93.785156 75.84375 92.203125 C 75.851562 92.191406 75.859375 92.183594 75.875 92.1875 C 75.890625 92.1875 75.898438 92.195312 75.902344 92.210938 C 76.347656 95.574219 77.515625 98.308594 80.503906 101.738281 C 80.515625 101.75 80.519531 101.761719 80.507812 101.777344 C 80.5 101.789062 80.484375 101.792969 80.472656 101.785156 Z M 82.257812 95.289062 C 82.792969 95.441406 85.367188 96.101562 87.5 95.554688 C 87.511719 95.550781 87.519531 95.539062 87.519531 95.523438 C 87.515625 95.511719 87.507812 95.5 87.492188 95.496094 C 86.601562 95.445312 82.773438 95.078125 80.925781 92.621094 C 80.917969 92.609375 80.917969 92.601562 80.925781 92.589844 C 80.929688 92.578125 80.941406 92.574219 80.953125 92.574219 C 82.265625 92.777344 83.578125 92.777344 84.890625 92.582031 C 84.90625 92.578125 84.914062 92.570312 84.914062 92.554688 C 84.917969 92.542969 84.914062 92.53125 84.898438 92.527344 C 84.410156 92.292969 81.867188 91.007812 81.785156 89.5 C 81.691406 87.875 83.363281 87.3125 85.140625 88.050781 C 85.175781 88.058594 85.1875 88.046875 85.179688 88.011719 C 85.078125 87.699219 84.90625 87.429688 84.671875 87.199219 C 84.664062 87.195312 84.660156 87.183594 84.664062 87.171875 C 84.667969 87.160156 84.675781 87.15625 84.6875 87.152344 C 85.644531 87.09375 86.546875 87.285156 87.398438 87.726562 C 87.410156 87.734375 87.417969 87.730469 87.429688 87.722656 C 87.4375 87.714844 87.441406 87.707031 87.4375 87.691406 C 87.265625 87.3125 86.324219 85.476562 83.640625 84.632812 C 83.628906 84.628906 83.621094 84.621094 83.621094 84.605469 C 83.621094 84.589844 83.628906 84.582031 83.640625 84.578125 C 84.078125 84.46875 86.105469 84.109375 89.523438 85.800781 C 89.542969 85.8125 89.5625 85.808594 89.574219 85.792969 C 89.589844 85.777344 89.59375 85.757812 89.582031 85.738281 C 89.238281 85.246094 88.804688 84.84375 88.289062 84.539062 C 88.273438 84.535156 88.269531 84.523438 88.273438 84.507812 C 88.277344 84.492188 88.285156 84.488281 88.300781 84.488281 C 89.59375 84.558594 91.769531 85.304688 92.371094 86.742188 C 92.371094 86.742188 92.394531 86.820312 92.425781 86.953125 C 92.429688 86.972656 92.425781 86.988281 92.40625 87 C 92.386719 87.011719 92.371094 87.011719 92.355469 86.996094 C 92.023438 86.71875 91.648438 86.558594 91.21875 86.511719 C 91.203125 86.511719 91.195312 86.515625 91.1875 86.53125 C 91.183594 86.542969 91.183594 86.554688 91.195312 86.566406 C 91.503906 86.8125 92.476562 87.730469 92.675781 89.730469 C 92.675781 89.742188 92.667969 89.753906 92.660156 89.757812 C 92.648438 89.765625 92.636719 89.765625 92.625 89.757812 C 92.269531 89.382812 91.832031 89.199219 91.3125 89.207031 C 91.300781 89.210938 91.289062 89.21875 91.289062 89.234375 C 91.285156 89.246094 91.289062 89.257812 91.300781 89.265625 C 91.902344 89.546875 93.027344 90.679688 92.640625 92.148438 C 92.597656 92.386719 92.496094 92.597656 92.328125 92.777344 C 92.164062 92.953125 91.960938 93.074219 91.722656 93.128906 C 91.695312 93.144531 91.695312 93.160156 91.71875 93.179688 C 92.003906 93.367188 92.300781 93.386719 92.609375 93.238281 C 92.636719 93.226562 92.652344 93.234375 92.65625 93.261719 C 92.839844 95.257812 90.945312 97.023438 87.371094 96.839844 C 83.8125 96.652344 82.523438 95.628906 82.226562 95.335938 C 82.210938 95.328125 82.207031 95.3125 82.21875 95.296875 C 82.226562 95.28125 82.238281 95.277344 82.257812 95.285156 Z M 92.527344 105.664062 C 92.3125 105.972656 87.074219 107.746094 87.792969 102.585938 C 87.792969 102.570312 87.789062 102.558594 87.773438 102.554688 C 87.761719 102.546875 87.75 102.550781 87.742188 102.5625 C 87.550781 102.835938 87.402344 103.132812 87.300781 103.449219 C 87.203125 103.769531 87.152344 104.09375 87.152344 104.429688 C 87.152344 104.761719 87.203125 105.089844 87.300781 105.40625 C 87.402344 105.726562 87.550781 106.019531 87.742188 106.292969 C 87.75 106.304688 87.75 106.3125 87.742188 106.324219 C 87.734375 106.335938 87.726562 106.339844 87.714844 106.335938 C 87.03125 106.171875 84.699219 103.527344 87.15625 100.324219 C 87.167969 100.308594 87.167969 100.292969 87.160156 100.277344 C 87.148438 100.261719 87.136719 100.253906 87.117188 100.253906 C 85.585938 100.394531 84.472656 99.699219 83.953125 98.914062 C 83.945312 98.902344 83.949219 98.890625 83.957031 98.882812 C 83.96875 98.871094 83.980469 98.871094 83.992188 98.875 C 85.601562 99.761719 88.34375 99 89.992188 98.21875 C 90.417969 98.011719 90.863281 97.957031 91.328125 98.054688 C 91.949219 98.195312 92.757812 98.519531 93.117188 99.285156 C 93.523438 102.9375 92.746094 105.351562 92.527344 105.664062 Z M 91.871094 82.449219 C 91.804688 82.359375 91.808594 82.269531 91.878906 82.179688 C 91.945312 82.09375 92.035156 82.070312 92.136719 82.109375 C 92.660156 82.355469 93.195312 82.375 93.734375 82.164062 C 93.757812 82.152344 93.78125 82.152344 93.808594 82.164062 C 94.347656 82.375 94.878906 82.355469 95.402344 82.109375 C 95.507812 82.070312 95.59375 82.09375 95.664062 82.179688 C 95.730469 82.269531 95.734375 82.359375 95.671875 82.449219 C 95.441406 82.800781 94.929688 83.179688 93.769531 83.179688 C 92.613281 83.179688 92.097656 82.800781 91.871094 82.449219 Z M 100.421875 100.253906 C 100.402344 100.25 100.390625 100.257812 100.378906 100.277344 C 100.371094 100.292969 100.371094 100.308594 100.382812 100.320312 C 102.839844 103.527344 100.507812 106.171875 99.824219 106.335938 C 99.8125 106.339844 99.804688 106.335938 99.796875 106.324219 C 99.789062 106.3125 99.789062 106.300781 99.796875 106.292969 C 99.988281 106.019531 100.136719 105.722656 100.238281 105.40625 C 100.335938 105.085938 100.386719 104.761719 100.386719 104.425781 C 100.386719 104.09375 100.335938 103.769531 100.238281 103.449219 C 100.136719 103.132812 99.988281 102.835938 99.796875 102.5625 C 99.789062 102.550781 99.777344 102.546875 99.765625 102.554688 C 99.75 102.558594 99.746094 102.570312 99.746094 102.582031 C 100.464844 107.742188 95.226562 105.96875 95.011719 105.664062 C 94.792969 105.355469 94.015625 102.9375 94.421875 99.285156 C 94.777344 98.515625 95.585938 98.191406 96.207031 98.054688 C 96.671875 97.953125 97.117188 98.007812 97.542969 98.214844 C 99.191406 99 101.933594 99.761719 103.542969 98.875 C 103.558594 98.867188 103.570312 98.871094 103.578125 98.878906 C 103.589844 98.890625 103.589844 98.902344 103.582031 98.914062 C 103.066406 99.695312 101.953125 100.390625 100.421875 100.253906 Z M 106.613281 92.621094 C 104.765625 95.078125 100.941406 95.441406 100.046875 95.496094 C 100.03125 95.5 100.023438 95.507812 100.023438 95.523438 C 100.023438 95.539062 100.027344 95.550781 100.042969 95.554688 C 102.171875 96.101562 104.746094 95.4375 105.285156 95.285156 C 105.296875 95.28125 105.308594 95.285156 105.316406 95.300781 C 105.324219 95.3125 105.324219 95.324219 105.3125 95.335938 C 105.015625 95.625 103.730469 96.648438 100.167969 96.835938 C 96.59375 97.023438 94.699219 95.253906 94.882812 93.261719 C 94.886719 93.230469 94.902344 93.222656 94.929688 93.238281 C 95.238281 93.382812 95.535156 93.363281 95.820312 93.175781 C 95.84375 93.15625 95.84375 93.140625 95.816406 93.128906 C 95.578125 93.070312 95.378906 92.949219 95.210938 92.773438 C 95.042969 92.59375 94.941406 92.386719 94.902344 92.144531 C 94.511719 90.675781 95.636719 89.546875 96.238281 89.261719 C 96.25 89.253906 96.253906 89.246094 96.253906 89.230469 C 96.25 89.214844 96.242188 89.207031 96.226562 89.203125 C 95.707031 89.195312 95.269531 89.378906 94.914062 89.753906 C 94.902344 89.761719 94.894531 89.761719 94.882812 89.757812 C 94.871094 89.75 94.863281 89.742188 94.863281 89.726562 C 95.066406 87.730469 96.035156 86.808594 96.34375 86.5625 C 96.355469 86.550781 96.359375 86.539062 96.351562 86.527344 C 96.347656 86.515625 96.335938 86.507812 96.320312 86.507812 C 95.894531 86.554688 95.515625 86.71875 95.183594 86.992188 C 95.167969 87.007812 95.152344 87.007812 95.132812 86.996094 C 95.113281 86.984375 95.109375 86.96875 95.113281 86.949219 C 95.148438 86.816406 95.167969 86.742188 95.167969 86.742188 C 95.769531 85.300781 97.945312 84.558594 99.238281 84.484375 C 99.253906 84.484375 99.261719 84.488281 99.265625 84.503906 C 99.269531 84.519531 99.265625 84.53125 99.253906 84.539062 C 98.734375 84.84375 98.300781 85.242188 97.960938 85.734375 C 97.949219 85.753906 97.949219 85.773438 97.964844 85.789062 C 97.980469 85.804688 97.996094 85.808594 98.015625 85.796875 C 101.433594 84.105469 103.460938 84.464844 103.898438 84.578125 C 103.910156 84.582031 103.917969 84.589844 103.917969 84.601562 C 103.917969 84.617188 103.910156 84.625 103.898438 84.628906 C 101.21875 85.472656 100.273438 87.308594 100.105469 87.691406 C 100.097656 87.703125 100.101562 87.710938 100.109375 87.722656 C 100.121094 87.730469 100.128906 87.730469 100.140625 87.726562 C 100.992188 87.28125 101.894531 87.089844 102.851562 87.152344 C 102.863281 87.152344 102.871094 87.15625 102.875 87.167969 C 102.878906 87.179688 102.878906 87.191406 102.867188 87.199219 C 102.632812 87.425781 102.460938 87.699219 102.359375 88.011719 C 102.351562 88.046875 102.363281 88.058594 102.398438 88.046875 C 104.179688 87.308594 105.851562 87.871094 105.757812 89.496094 C 105.671875 91.003906 103.128906 92.289062 102.640625 92.523438 C 102.625 92.53125 102.621094 92.539062 102.625 92.554688 C 102.625 92.566406 102.632812 92.574219 102.648438 92.578125 C 103.960938 92.773438 105.273438 92.773438 106.585938 92.574219 C 106.601562 92.570312 106.609375 92.574219 106.617188 92.585938 C 106.625 92.597656 106.625 92.609375 106.613281 92.621094 Z M 108.46875 103.167969 C 108.441406 103.1875 108.410156 103.148438 108.433594 103.121094 C 110.457031 100.667969 110.871094 98.941406 110.953125 98.390625 C 110.957031 98.367188 110.949219 98.351562 110.925781 98.347656 C 110.90625 98.339844 110.890625 98.347656 110.882812 98.367188 C 109.8125 100.21875 107.625 101.484375 107.070312 101.785156 C 107.054688 101.792969 107.042969 101.789062 107.03125 101.777344 C 107.023438 101.761719 107.023438 101.75 107.039062 101.738281 C 110.027344 98.308594 111.195312 95.574219 111.640625 92.210938 C 111.640625 92.195312 111.652344 92.1875 111.664062 92.1875 C 111.679688 92.183594 111.691406 92.191406 111.695312 92.203125 C 112.136719 93.785156 111.761719 95.6875 111.671875 96.082031 C 111.671875 96.09375 111.679688 96.105469 111.6875 96.109375 C 111.699219 96.117188 111.710938 96.117188 111.722656 96.109375 C 112.222656 95.691406 112.578125 95.175781 112.792969 94.558594 C 112.800781 94.53125 112.847656 94.539062 112.847656 94.570312 C 113.203125 99.558594 109.324219 102.566406 108.46875 103.167969 Z M 113.367188 79.9375 C 111.230469 81.1875 109.855469 83.375 109.261719 85.054688 C 109.257812 85.066406 109.25 85.074219 109.234375 85.074219 C 109.222656 85.074219 109.210938 85.066406 109.207031 85.054688 C 109.039062 84.488281 109.003906 83.910156 109.097656 83.324219 C 109.191406 82.742188 109.410156 82.207031 109.75 81.722656 C 109.761719 81.710938 109.761719 81.699219 109.753906 81.6875 C 109.746094 81.675781 109.738281 81.671875 109.726562 81.675781 C 108.613281 81.90625 107.121094 83.324219 106.503906 83.457031 C 105.632812 83.644531 105.199219 82.839844 105.324219 82.15625 C 105.433594 81.550781 107.785156 78.464844 113.359375 79.886719 C 113.371094 79.886719 113.378906 79.894531 113.382812 79.910156 C 113.382812 79.921875 113.378906 79.929688 113.367188 79.9375 Z M 116.03125 88.582031 C 115.996094 88.578125 115.996094 88.523438 116.03125 88.523438 C 117.066406 88.421875 118.046875 88.136719 118.972656 87.671875 C 119.902344 87.203125 120.714844 86.582031 121.410156 85.8125 C 120.855469 84.769531 120.449219 83.679688 120.179688 82.53125 C 120.179688 82.519531 120.171875 82.511719 120.160156 82.507812 C 120.148438 82.507812 120.136719 82.511719 120.128906 82.519531 C 119.863281 82.914062 118.121094 85.378906 116.066406 85.378906 C 113.902344 85.378906 114.765625 82.648438 115.949219 82.25 C 115.964844 82.246094 115.972656 82.238281 115.972656 82.222656 C 115.972656 82.207031 115.964844 82.199219 115.949219 82.195312 C 115.65625 82.15625 114.859375 82.164062 113.941406 83.101562 C 113.929688 83.109375 113.921875 83.113281 113.910156 83.109375 C 113.898438 83.105469 113.890625 83.09375 113.890625 83.082031 C 113.941406 82.289062 116.722656 78.496094 121.859375 80.300781 C 121.875 82.476562 122.367188 84.542969 123.332031 86.492188 C 123.332031 86.492188 121.484375 89.230469 116.03125 88.582031 Z M 126.886719 81.695312 C 126.878906 81.710938 126.867188 81.714844 126.851562 81.714844 C 126.835938 81.710938 126.828125 81.699219 126.828125 81.683594 C 126.921875 80.359375 126.863281 78.851562 126.320312 77.765625 C 126.3125 77.753906 126.300781 77.75 126.285156 77.753906 C 126.273438 77.753906 126.265625 77.765625 126.261719 77.78125 C 126.34375 78.820312 126.480469 80.949219 125.925781 82.132812 C 125.726562 82.542969 125.398438 82.761719 124.941406 82.789062 C 124.484375 82.816406 124.132812 82.636719 123.882812 82.253906 C 123.449219 81.515625 123.226562 80.71875 123.207031 79.863281 C 123.007812 76.222656 125.570312 69.625 124.796875 65.996094 C 124.789062 65.972656 124.796875 65.957031 124.820312 65.949219 C 124.847656 65.941406 124.863281 65.949219 124.871094 65.972656 C 125.664062 67.796875 128.804688 76.257812 126.886719 81.695312 Z M 137.273438 63.632812 C 135.085938 63.835938 131.84375 60.988281 129.597656 56.707031 C 127.347656 52.421875 126.839844 48.148438 128.253906 46.472656 C 128.265625 46.460938 128.277344 46.457031 128.289062 46.464844 C 128.300781 46.46875 128.308594 46.480469 128.304688 46.496094 C 127.890625 49.113281 128.613281 52.71875 130.472656 56.25 C 132.328125 59.785156 134.886719 62.425781 137.285156 63.578125 C 137.296875 63.582031 137.300781 63.59375 137.300781 63.609375 C 137.296875 63.621094 137.289062 63.628906 137.273438 63.632812 Z M 142.875 61.023438 C 140.9375 62.035156 137.289062 58.902344 134.726562 54.027344 C 132.164062 49.148438 131.65625 44.371094 133.59375 43.359375 C 135.527344 42.347656 139.175781 45.480469 141.742188 50.359375 C 144.304688 55.238281 144.8125 60.011719 142.875 61.023438 Z M 73.0625 60.585938 C 73.046875 60.589844 73.035156 60.597656 73.027344 60.613281 C 73.023438 60.628906 73.023438 60.644531 73.039062 60.65625 C 73.59375 61.207031 73.390625 62.84375 72.519531 64.503906 C 71.648438 66.160156 70.414062 67.257812 69.640625 67.117188 C 69.625 67.113281 69.613281 67.117188 69.601562 67.132812 C 69.59375 67.148438 69.589844 67.160156 69.601562 67.175781 C 69.671875 67.316406 69.773438 67.425781 69.914062 67.503906 C 70.699219 67.914062 72.140625 66.714844 73.132812 64.824219 C 74.128906 62.9375 74.296875 61.070312 73.511719 60.660156 C 73.367188 60.589844 73.21875 60.566406 73.0625 60.589844 Z M 117.625 67.503906 C 117.765625 67.425781 117.867188 67.316406 117.941406 67.175781 C 117.949219 67.160156 117.949219 67.148438 117.9375 67.132812 C 117.929688 67.117188 117.914062 67.113281 117.898438 67.117188 C 117.125 67.257812 115.890625 66.160156 115.019531 64.503906 C 114.148438 62.84375 113.945312 61.207031 114.503906 60.65625 C 114.515625 60.644531 114.515625 60.628906 114.511719 60.613281 C 114.503906 60.597656 114.492188 60.585938 114.476562 60.585938 C 114.320312 60.5625 114.167969 60.585938 114.027344 60.65625 C 113.242188 61.066406 113.410156 62.933594 114.402344 64.824219 C 115.394531 66.714844 116.839844 67.917969 117.625 67.503906 Z M 53.914062 44.777344 C 53.933594 44.792969 53.953125 44.789062 53.972656 44.773438 C 53.992188 44.753906 53.992188 44.734375 53.980469 44.710938 C 53.859375 44.511719 53.691406 44.355469 53.484375 44.242188 C 51.910156 43.417969 48.761719 46.308594 46.453125 50.699219 C 44.144531 55.09375 43.550781 59.320312 45.128906 60.144531 C 45.339844 60.25 45.5625 60.296875 45.796875 60.28125 C 45.820312 60.28125 45.835938 60.265625 45.839844 60.242188 C 45.847656 60.21875 45.839844 60.199219 45.816406 60.1875 C 44.433594 59.464844 45.125 55.429688 47.359375 51.175781 C 49.59375 46.921875 52.53125 44.054688 53.914062 44.777344 Z M 137.488281 49.773438 C 137.050781 50.003906 137.21875 51.171875 137.855469 52.390625 C 138.496094 53.609375 139.367188 54.410156 139.804688 54.179688 C 140.242188 53.953125 140.078125 52.78125 139.4375 51.5625 C 138.796875 50.347656 137.925781 49.546875 137.488281 49.773438 Z M 141.085938 50.699219 C 138.777344 46.308594 135.632812 43.417969 134.054688 44.242188 C 133.847656 44.355469 133.683594 44.511719 133.5625 44.710938 C 133.546875 44.734375 133.550781 44.753906 133.566406 44.769531 C 133.585938 44.789062 133.605469 44.792969 133.625 44.78125 C 135.011719 44.058594 137.945312 46.917969 140.179688 51.175781 C 142.417969 55.429688 143.109375 59.464844 141.726562 60.1875 C 141.703125 60.195312 141.691406 60.214844 141.699219 60.238281 C 141.703125 60.265625 141.71875 60.277344 141.742188 60.28125 C 141.980469 60.296875 142.203125 60.25 142.414062 60.140625 C 143.988281 59.320312 143.394531 55.09375 141.085938 50.699219 Z M 50.050781 49.773438 C 49.613281 49.546875 48.742188 50.347656 48.101562 51.5625 C 47.464844 52.78125 47.300781 53.953125 47.734375 54.179688 C 48.171875 54.40625 49.046875 53.605469 49.683594 52.390625 C 50.324219 51.175781 50.488281 50.003906 50.050781 49.773438 Z M 50.050781 49.773438 " fill-opacity="1" fill-rule="evenodd"/></g><path fill="#ff0336" d="M 102.109375 46.980469 C 101.988281 46.980469 101.867188 46.996094 101.746094 47.027344 C 101.628906 47.054688 101.511719 47.101562 101.40625 47.160156 C 101.296875 47.21875 101.199219 47.289062 101.105469 47.371094 C 101.015625 47.457031 100.9375 47.550781 100.871094 47.652344 C 100.804688 47.757812 100.75 47.867188 100.710938 47.984375 C 100.671875 48.097656 100.648438 48.21875 100.636719 48.339844 C 100.628906 48.464844 100.632812 48.585938 100.65625 48.707031 C 100.675781 48.828125 100.710938 48.945312 100.761719 49.058594 C 100.789062 49.117188 100.777344 49.167969 100.726562 49.210938 C 98.839844 50.863281 94.984375 49.933594 94.546875 46.890625 C 94.535156 46.832031 94.558594 46.789062 94.609375 46.761719 C 94.816406 46.636719 94.992188 46.476562 95.128906 46.277344 C 95.265625 46.078125 95.355469 45.859375 95.394531 45.621094 C 95.4375 45.378906 95.425781 45.144531 95.359375 44.910156 C 95.296875 44.675781 95.1875 44.46875 95.03125 44.28125 C 94.875 44.097656 94.683594 43.953125 94.464844 43.851562 C 94.246094 43.75 94.011719 43.699219 93.769531 43.699219 C 93.527344 43.699219 93.296875 43.75 93.074219 43.851562 C 92.855469 43.953125 92.667969 44.097656 92.511719 44.28125 C 92.355469 44.46875 92.242188 44.675781 92.179688 44.910156 C 92.117188 45.144531 92.105469 45.378906 92.144531 45.621094 C 92.183594 45.859375 92.273438 46.078125 92.414062 46.277344 C 92.550781 46.476562 92.722656 46.636719 92.933594 46.761719 C 92.984375 46.789062 93.003906 46.832031 92.996094 46.890625 C 92.558594 49.933594 88.703125 50.863281 86.8125 49.210938 C 86.761719 49.167969 86.75 49.117188 86.777344 49.058594 C 86.867188 48.863281 86.910156 48.65625 86.90625 48.445312 C 86.90625 48.230469 86.859375 48.027344 86.769531 47.832031 C 86.679688 47.640625 86.554688 47.472656 86.390625 47.335938 C 86.226562 47.195312 86.042969 47.097656 85.839844 47.039062 C 85.632812 46.976562 85.421875 46.964844 85.210938 46.996094 C 85 47.027344 84.804688 47.101562 84.625 47.21875 C 84.445312 47.332031 84.296875 47.480469 84.183594 47.660156 C 84.066406 47.839844 83.996094 48.035156 83.964844 48.25 C 83.933594 48.460938 83.949219 48.667969 84.011719 48.871094 C 84.070312 49.078125 84.171875 49.261719 84.3125 49.421875 C 84.453125 49.582031 84.621094 49.707031 84.816406 49.796875 C 85.007812 49.886719 85.214844 49.929688 85.429688 49.929688 C 85.492188 49.929688 85.558594 49.925781 85.625 49.917969 C 85.679688 49.910156 85.722656 49.925781 85.753906 49.972656 L 87.925781 53.230469 C 87.945312 53.261719 87.953125 53.296875 87.941406 53.332031 C 87.9375 53.371094 87.914062 53.398438 87.882812 53.417969 C 87.742188 53.511719 87.648438 53.640625 87.605469 53.808594 C 87.5625 53.972656 87.578125 54.128906 87.65625 54.28125 C 87.734375 54.433594 87.851562 54.539062 88.011719 54.601562 C 88.171875 54.664062 88.332031 54.664062 88.492188 54.605469 C 90.191406 53.957031 91.949219 53.632812 93.769531 53.632812 C 95.589844 53.632812 97.347656 53.957031 99.046875 54.605469 C 99.207031 54.664062 99.367188 54.664062 99.527344 54.601562 C 99.683594 54.539062 99.804688 54.433594 99.882812 54.28125 C 99.957031 54.128906 99.976562 53.972656 99.933594 53.808594 C 99.890625 53.640625 99.796875 53.511719 99.65625 53.417969 C 99.578125 53.367188 99.5625 53.304688 99.613281 53.230469 L 101.785156 49.972656 C 101.816406 49.925781 101.859375 49.90625 101.914062 49.917969 C 101.980469 49.925781 102.042969 49.929688 102.109375 49.929688 C 102.304688 49.929688 102.496094 49.890625 102.675781 49.816406 C 102.855469 49.742188 103.015625 49.632812 103.15625 49.496094 C 103.292969 49.359375 103.402344 49.199219 103.476562 49.019531 C 103.550781 48.835938 103.589844 48.648438 103.589844 48.453125 C 103.589844 48.257812 103.550781 48.070312 103.476562 47.890625 C 103.402344 47.707031 103.292969 47.550781 103.15625 47.410156 C 103.015625 47.273438 102.855469 47.167969 102.675781 47.089844 C 102.496094 47.015625 102.304688 46.980469 102.109375 46.980469 Z M 102.109375 46.980469 " fill-opacity="1" fill-rule="evenodd"/><g clip-path="url(#1f0199a911)"><path fill="#ff0336" d="M 47.410156 91.65625 C 47.46875 91.582031 47.539062 91.574219 47.613281 91.628906 C 47.992188 91.839844 48.503906 92.164062 49.132812 92.582031 C 49.769531 92.992188 50.550781 93.464844 51.421875 94.042969 C 51.851562 94.335938 52.335938 94.617188 52.84375 94.921875 L 54.4375 95.894531 C 54.996094 96.222656 55.601562 96.546875 56.21875 96.898438 L 57.164062 97.441406 C 57.484375 97.621094 57.828125 97.78125 58.164062 97.960938 C 64.8125 101.488281 71.824219 104.011719 79.203125 105.527344 C 84.007812 106.507812 88.859375 107.003906 93.765625 107.015625 C 98.667969 107.003906 103.523438 106.507812 108.328125 105.527344 C 115.707031 104.011719 122.71875 101.488281 129.363281 97.960938 C 129.703125 97.78125 130.042969 97.617188 130.367188 97.441406 L 131.3125 96.902344 C 131.929688 96.546875 132.53125 96.222656 133.09375 95.894531 L 134.6875 94.921875 C 135.191406 94.617188 135.675781 94.335938 136.109375 94.042969 C 136.980469 93.464844 137.761719 92.992188 138.398438 92.582031 C 139.023438 92.160156 139.535156 91.839844 139.914062 91.628906 C 139.988281 91.574219 140.058594 91.582031 140.117188 91.65625 C 140.152344 91.742188 140.128906 91.8125 140.050781 91.863281 C 133.527344 97.179688 126.292969 101.25 118.347656 104.074219 C 110.398438 106.886719 102.203125 108.292969 93.765625 108.296875 C 85.324219 108.292969 77.128906 106.886719 69.179688 104.074219 C 61.234375 101.25 54 97.179688 47.476562 91.863281 C 47.398438 91.8125 47.375 91.742188 47.410156 91.65625 Z M 47.410156 91.65625 " fill-opacity="1" fill-rule="evenodd"/></g><g clip-path="url(#77e2d6d3bb)"><path fill="#ff0336" d="M 157.484375 112.589844 C 157.539062 112.636719 157.515625 112.734375 157.425781 112.828125 C 157.015625 113.253906 156.417969 113.824219 155.644531 114.53125 C 154.863281 115.222656 153.882812 116.011719 152.75 116.925781 C 152.1875 117.390625 151.558594 117.84375 150.894531 118.324219 L 148.785156 119.84375 C 148.035156 120.363281 147.226562 120.875 146.390625 121.417969 L 145.113281 122.246094 C 144.675781 122.519531 144.210938 122.78125 143.75 123.050781 C 139.578125 125.542969 135.230469 127.683594 130.710938 129.472656 C 125.390625 131.59375 119.921875 133.230469 114.308594 134.378906 C 107.53125 135.761719 100.683594 136.460938 93.765625 136.472656 C 86.84375 136.460938 79.996094 135.761719 73.21875 134.378906 C 67.605469 133.230469 62.136719 131.59375 56.820312 129.472656 C 52.296875 127.683594 47.949219 125.542969 43.777344 123.050781 C 43.316406 122.777344 42.855469 122.519531 42.417969 122.242188 L 41.136719 121.417969 C 40.304688 120.875 39.496094 120.363281 38.746094 119.847656 L 36.632812 118.328125 C 35.96875 117.84375 35.339844 117.390625 34.78125 116.925781 C 33.648438 116.011719 32.664062 115.222656 31.882812 114.53125 C 31.113281 113.828125 30.515625 113.253906 30.105469 112.828125 C 30.015625 112.734375 29.992188 112.636719 30.046875 112.589844 C 30.101562 112.546875 30.21875 112.574219 30.320312 112.660156 C 39.265625 119.945312 49.183594 125.523438 60.074219 129.394531 C 70.96875 133.25 82.199219 135.183594 93.769531 135.1875 C 105.335938 135.183594 116.566406 133.25 127.460938 129.394531 C 138.351562 125.523438 148.269531 119.945312 157.214844 112.660156 C 157.3125 112.574219 157.429688 112.546875 157.484375 112.589844 Z M 157.484375 112.589844 " fill-opacity="1" fill-rule="evenodd"/></g><g clip-path="url(#f3f2d50a82)"><path fill="#ff0336" d="M 87.925781 142.019531 C 87.90625 141.964844 87.871094 141.9375 87.8125 141.9375 L 86.609375 141.9375 L 86.164062 140.613281 C 86.148438 140.558594 86.109375 140.53125 86.054688 140.53125 C 86 140.53125 85.960938 140.558594 85.945312 140.613281 L 85.503906 141.9375 L 84.296875 141.9375 C 84.242188 141.9375 84.203125 141.964844 84.1875 142.019531 C 84.167969 142.074219 84.179688 142.117188 84.230469 142.148438 L 85.199219 142.847656 L 84.773438 144.125 C 84.753906 144.179688 84.769531 144.222656 84.8125 144.257812 C 84.835938 144.273438 84.859375 144.28125 84.882812 144.28125 C 84.910156 144.28125 84.933594 144.273438 84.953125 144.257812 L 86.054688 143.464844 L 87.15625 144.257812 C 87.179688 144.273438 87.199219 144.28125 87.226562 144.28125 C 87.265625 144.28125 87.296875 144.265625 87.320312 144.230469 C 87.34375 144.199219 87.351562 144.164062 87.335938 144.128906 L 86.910156 142.847656 L 87.882812 142.148438 C 87.929688 142.117188 87.941406 142.074219 87.925781 142.019531 Z M 87.925781 142.019531 " fill-opacity="1" fill-rule="evenodd"/></g><g clip-path="url(#92e76f3255)"><path fill="#ff0336" d="M 103.628906 142.019531 C 103.609375 141.964844 103.574219 141.9375 103.515625 141.9375 L 102.3125 141.9375 L 101.867188 140.613281 C 101.851562 140.558594 101.8125 140.53125 101.757812 140.53125 C 101.703125 140.53125 101.664062 140.558594 101.648438 140.613281 L 101.207031 141.9375 L 100 141.9375 C 99.945312 141.9375 99.90625 141.964844 99.890625 142.019531 C 99.871094 142.074219 99.882812 142.117188 99.933594 142.148438 L 100.902344 142.847656 L 100.476562 144.125 C 100.457031 144.179688 100.472656 144.222656 100.515625 144.257812 C 100.539062 144.273438 100.5625 144.28125 100.585938 144.28125 C 100.613281 144.28125 100.636719 144.273438 100.65625 144.257812 L 101.757812 143.464844 L 102.859375 144.257812 C 102.882812 144.273438 102.902344 144.28125 102.929688 144.28125 C 102.96875 144.28125 103 144.265625 103.023438 144.230469 C 103.046875 144.199219 103.054688 144.164062 103.039062 144.128906 L 102.613281 142.847656 L 103.585938 142.148438 C 103.632812 142.117188 103.644531 142.074219 103.628906 142.019531 Z M 103.628906 142.019531 " fill-opacity="1" fill-rule="evenodd"/></g><g clip-path="url(#30c55b0ce8)"><path fill="#ff0336" d="M 96.886719 142.910156 C 96.859375 142.824219 96.796875 142.78125 96.707031 142.78125 L 94.78125 142.78125 L 94.070312 140.660156 C 94.042969 140.574219 93.984375 140.53125 93.894531 140.53125 C 93.804688 140.53125 93.746094 140.574219 93.71875 140.660156 L 93.011719 142.78125 L 91.082031 142.78125 C 90.992188 142.78125 90.933594 142.824219 90.902344 142.910156 C 90.875 142.996094 90.898438 143.066406 90.972656 143.121094 L 92.523438 144.238281 L 91.84375 146.28125 C 91.8125 146.371094 91.835938 146.4375 91.910156 146.492188 C 91.941406 146.515625 91.980469 146.527344 92.019531 146.53125 C 92.0625 146.527344 92.097656 146.515625 92.132812 146.492188 L 93.894531 145.222656 L 95.660156 146.496094 C 95.691406 146.519531 95.730469 146.53125 95.769531 146.53125 C 95.832031 146.53125 95.882812 146.503906 95.921875 146.453125 C 95.957031 146.402344 95.964844 146.34375 95.945312 146.285156 L 95.265625 144.238281 L 96.816406 143.121094 C 96.890625 143.066406 96.914062 142.996094 96.886719 142.910156 Z M 96.886719 142.910156 " fill-opacity="1" fill-rule="evenodd"/></g><g fill="#ffffff" fill-opacity="1"><g transform="translate(29.307347, 102.283381)"><g><path d="M 11.121094 -10.265625 C 10.96875 -10.40625 10.820312 -10.386719 10.695312 -10.246094 L 0.898438 0.414062 C 0.769531 0.554688 0.761719 0.703125 0.917969 0.84375 L 2.359375 2.167969 C 2.5 2.296875 2.660156 2.289062 2.785156 2.148438 L 12.582031 -8.511719 C 12.710938 -8.652344 12.703125 -8.8125 12.5625 -8.9375 Z M 11.121094 -10.265625 "/></g></g></g><g fill="#ffffff" fill-opacity="1"><g transform="translate(35.123383, 107.575022)"><g><path d="M 14.316406 -8.234375 C 14.148438 -8.355469 14.007812 -8.320312 13.894531 -8.167969 L 9.214844 -1.734375 L 9.121094 -1.800781 L 11.519531 -9.96875 C 11.574219 -10.136719 11.527344 -10.265625 11.390625 -10.363281 L 9.878906 -11.464844 C 9.726562 -11.574219 9.570312 -11.550781 9.460938 -11.398438 L 0.941406 0.3125 C 0.828125 0.464844 0.855469 0.621094 1.007812 0.730469 L 2.589844 1.886719 C 2.757812 2.007812 2.902344 1.972656 3.011719 1.820312 L 7.714844 -4.644531 L 7.792969 -4.589844 L 5.386719 3.617188 C 5.335938 3.789062 5.382812 3.914062 5.519531 4.015625 L 7.027344 5.113281 C 7.179688 5.226562 7.339844 5.199219 7.449219 5.046875 L 15.96875 -6.660156 C 16.078125 -6.8125 16.054688 -6.96875 15.902344 -7.082031 Z M 14.316406 -8.234375 "/></g></g></g><g fill="#ffffff" fill-opacity="1"><g transform="translate(46.263371, 115.360617)"><g><path d="M 13.652344 -9.886719 C 13.449219 -9.992188 13.28125 -9.953125 13.125 -9.777344 L 6.675781 -1.746094 L 9.601562 -11.617188 C 9.65625 -11.84375 9.589844 -12.007812 9.390625 -12.113281 L 7.800781 -12.941406 C 7.550781 -13.070312 7.382812 -12.992188 7.308594 -12.730469 L 3.484375 1.4375 C 3.429688 1.664062 3.492188 1.824219 3.691406 1.929688 L 5.363281 2.800781 C 5.566406 2.90625 5.734375 2.867188 5.890625 2.691406 L 15.347656 -8.53125 C 15.519531 -8.738281 15.488281 -8.925781 15.238281 -9.058594 Z M 13.652344 -9.886719 "/></g></g></g><g fill="#ffffff" fill-opacity="1"><g transform="translate(58.526718, 121.354773)"><g><path d="M 6.554688 -13.640625 C 6.359375 -13.714844 6.230469 -13.644531 6.164062 -13.46875 L 0.988281 0.0546875 C 0.921875 0.230469 0.96875 0.371094 1.160156 0.445312 L 2.992188 1.144531 C 3.167969 1.214844 3.316406 1.148438 3.382812 0.972656 L 8.558594 -12.550781 C 8.625 -12.726562 8.5625 -12.871094 8.386719 -12.941406 Z M 6.554688 -13.640625 "/></g></g></g><g fill="#ffffff" fill-opacity="1"><g transform="translate(65.867233, 124.111228)"><g><path d="M 11.34375 -9.828125 C 11.789062 -11.542969 11.09375 -12.699219 9.398438 -13.140625 L 7.355469 -13.671875 C 5.640625 -14.117188 4.472656 -13.445312 4.027344 -11.730469 L 1.597656 -2.390625 C 1.148438 -0.675781 1.84375 0.480469 3.558594 0.925781 L 5.601562 1.457031 C 7.296875 1.898438 8.464844 1.226562 8.914062 -0.488281 L 9.425781 -2.457031 C 9.472656 -2.640625 9.390625 -2.777344 9.207031 -2.824219 L 7.382812 -3.300781 C 7.183594 -3.351562 7.0625 -3.265625 7.015625 -3.085938 L 6.636719 -1.625 C 6.507812 -1.132812 6.191406 -0.960938 5.71875 -1.085938 L 4.769531 -1.332031 C 4.292969 -1.453125 4.101562 -1.757812 4.226562 -2.25 L 6.390625 -10.570312 C 6.515625 -11.046875 6.820312 -11.238281 7.3125 -11.109375 L 8.261719 -10.863281 C 8.734375 -10.742188 8.925781 -10.417969 8.800781 -9.945312 L 8.421875 -8.484375 C 8.375 -8.300781 8.4375 -8.167969 8.636719 -8.117188 L 10.460938 -7.640625 C 10.644531 -7.59375 10.78125 -7.675781 10.828125 -7.859375 Z M 11.34375 -9.828125 "/></g></g></g><g fill="#ffffff" fill-opacity="1"><g transform="translate(78.523423, 127.126033)"><g><path d="M 2.648438 -14.875 C 2.460938 -14.894531 2.335938 -14.796875 2.3125 -14.609375 L 2.089844 -12.738281 C 2.066406 -12.550781 2.164062 -12.425781 2.351562 -12.402344 L 4.523438 -12.144531 L 3.070312 0.0625 C 3.042969 0.269531 3.144531 0.375 3.332031 0.398438 L 5.277344 0.628906 C 5.484375 0.652344 5.589844 0.570312 5.613281 0.367188 L 7.070312 -11.839844 L 9.242188 -11.582031 C 9.449219 -11.554688 9.554688 -11.65625 9.578125 -11.84375 L 9.800781 -13.714844 C 9.824219 -13.902344 9.742188 -14.027344 9.535156 -14.050781 Z M 2.648438 -14.875 "/></g></g></g><g fill="#ffffff" fill-opacity="1"><g transform="translate(90.700206, 128.360542)"><g><path d="M 6.117188 -15.1875 C 5.910156 -15.183594 5.742188 -15.011719 5.746094 -14.804688 L 5.941406 -3.34375 C 5.949219 -2.835938 5.6875 -2.585938 5.199219 -2.578125 L 4.21875 -2.558594 C 3.726562 -2.550781 3.460938 -2.792969 3.453125 -3.300781 L 3.257812 -14.761719 C 3.253906 -14.96875 3.082031 -15.136719 2.875 -15.132812 L 1.0625 -15.101562 C 0.855469 -15.097656 0.691406 -14.925781 0.695312 -14.71875 L 0.898438 -2.730469 C 0.925781 -0.957031 1.886719 -0.03125 3.65625 -0.0625 L 5.769531 -0.0976562 C 7.539062 -0.128906 8.464844 -1.085938 8.4375 -2.859375 L 8.234375 -14.847656 C 8.230469 -15.054688 8.058594 -15.222656 7.851562 -15.21875 Z M 6.117188 -15.1875 "/></g></g></g><g fill="#ffffff" fill-opacity="1"><g transform="translate(103.716103, 127.887945)"><g><path d="M 1.253906 -15.46875 C -0.476562 -15.195312 -1.28125 -14.113281 -1.003906 -12.363281 L -0.308594 -7.96875 C -0.25 -7.613281 -0.046875 -7.417969 0.304688 -7.359375 L 4.949219 -6.605469 L 5.339844 -4.128906 C 5.417969 -3.625 5.199219 -3.34375 4.714844 -3.265625 L 3.820312 -3.125 C 3.355469 -3.050781 3.035156 -3.25 2.957031 -3.75 L 2.730469 -5.183594 C 2.699219 -5.390625 2.589844 -5.46875 2.382812 -5.4375 L 0.449219 -5.128906 C 0.261719 -5.101562 0.164062 -4.988281 0.195312 -4.785156 L 0.507812 -2.828125 C 0.785156 -1.078125 1.878906 -0.296875 3.613281 -0.570312 L 5.699219 -0.902344 C 7.449219 -1.179688 8.230469 -2.257812 7.957031 -4.007812 L 7.273438 -8.308594 C 7.21875 -8.664062 7.019531 -8.839844 6.679688 -8.921875 L 2.019531 -9.671875 L 1.613281 -12.242188 C 1.535156 -12.726562 1.773438 -13.03125 2.238281 -13.105469 L 3.132812 -13.246094 C 3.636719 -13.328125 3.917969 -13.105469 3.996094 -12.621094 L 4.226562 -11.167969 C 4.253906 -10.980469 4.386719 -10.886719 4.570312 -10.917969 L 6.507812 -11.222656 C 6.710938 -11.253906 6.789062 -11.382812 6.757812 -11.566406 L 6.445312 -13.542969 C 6.167969 -15.292969 5.089844 -16.074219 3.339844 -15.800781 Z M 1.253906 -15.46875 "/></g></g></g><g fill="#ffffff" fill-opacity="1"><g transform="translate(116.321208, 125.565263)"><g/></g></g><g fill="#ffffff" fill-opacity="1"><g transform="translate(124.146201, 123.351534)"><g><path d="M -0.144531 -2.871094 C 0.519531 -1.226562 1.746094 -0.707031 3.390625 -1.371094 L 5.699219 -2.304688 C 7.324219 -2.960938 7.859375 -4.195312 7.195312 -5.839844 L 5.230469 -10.699219 C 5.152344 -10.890625 5.015625 -10.933594 4.839844 -10.863281 L 1.902344 -9.675781 C 1.710938 -9.597656 1.660156 -9.476562 1.738281 -9.285156 L 2.441406 -7.535156 C 2.515625 -7.363281 2.644531 -7.292969 2.835938 -7.371094 L 3.746094 -7.738281 L 4.691406 -5.394531 C 4.882812 -4.921875 4.730469 -4.597656 4.277344 -4.414062 L 3.015625 -3.90625 C 2.5625 -3.722656 2.226562 -3.847656 2.035156 -4.320312 L -1.1875 -12.289062 C -1.371094 -12.746094 -1.242188 -13.082031 -0.769531 -13.273438 L 0.488281 -13.78125 C 0.941406 -13.964844 1.285156 -13.820312 1.46875 -13.367188 L 2.007812 -12.035156 C 2.078125 -11.863281 2.207031 -11.792969 2.398438 -11.871094 L 4.148438 -12.578125 C 4.320312 -12.648438 4.382812 -12.796875 4.3125 -12.96875 L 3.578125 -14.789062 C 2.914062 -16.429688 1.667969 -16.945312 0.0429688 -16.285156 L -2.265625 -15.355469 C -3.90625 -14.6875 -4.425781 -13.460938 -3.761719 -11.820312 Z M -0.144531 -2.871094 "/></g></g></g><g fill="#ffffff" fill-opacity="1"><g transform="translate(136.52475, 118.074775)"><g><path d="M -1.015625 -16.898438 C -1.210938 -16.785156 -1.277344 -16.636719 -1.234375 -16.421875 L -0.3125 -10.6875 L -4.875 -14.28125 C -5.046875 -14.421875 -5.207031 -14.433594 -5.402344 -14.320312 L -7.027344 -13.363281 C -7.273438 -13.222656 -7.300781 -13.007812 -7.066406 -12.835938 L 0.160156 -7.355469 L 3.140625 -2.285156 C 3.265625 -2.074219 3.445312 -2.027344 3.65625 -2.148438 L 5.214844 -3.066406 C 5.429688 -3.191406 5.476562 -3.371094 5.351562 -3.582031 L 2.367188 -8.65625 L 1.089844 -17.636719 C 1.054688 -17.921875 0.855469 -18 0.609375 -17.855469 Z M -1.015625 -16.898438 "/></g></g></g><g fill="#ffffff" fill-opacity="1"><g transform="translate(148.54758, 110.757093)"><g><path d="M -2.886719 -17.234375 C -3.0625 -17.089844 -3.089844 -16.917969 -2.988281 -16.707031 L 1.417969 -8.15625 L -6.203125 -14.027344 C -6.390625 -14.164062 -6.566406 -14.164062 -6.738281 -14.019531 L -8.648438 -12.425781 C -8.835938 -12.269531 -8.855469 -12.082031 -8.699219 -11.894531 L 0.480469 -0.894531 C 0.640625 -0.707031 0.824219 -0.6875 1.011719 -0.84375 L 2.34375 -1.957031 C 2.535156 -2.113281 2.550781 -2.300781 2.394531 -2.488281 L -3.042969 -9 L -2.941406 -9.085938 L 3.953125 -3.738281 C 4.140625 -3.601562 4.3125 -3.597656 4.488281 -3.746094 L 5.195312 -4.335938 C 5.371094 -4.480469 5.398438 -4.652344 5.296875 -4.863281 L 1.269531 -12.601562 L 1.371094 -12.6875 L 6.808594 -6.171875 C 6.964844 -5.984375 7.152344 -5.96875 7.339844 -6.125 L 8.683594 -7.246094 C 8.875 -7.402344 8.890625 -7.589844 8.734375 -7.777344 L -0.445312 -18.78125 C -0.601562 -18.96875 -0.789062 -18.984375 -0.976562 -18.828125 Z M -2.886719 -17.234375 "/></g></g></g></svg>