<svg xmlns="http://www.w3.org/2000/svg" xmlns:xlink="http://www.w3.org/1999/xlink" width="100" zoomAndPan="magnify" viewBox="0 0 75 74.999997" height="100" preserveAspectRatio="xMidYMid meet" version="1.0"><defs><g/><clipPath id="285e5062d7"><path d="M 16.957031 16.695312 L 58.207031 16.695312 L 58.207031 43.695312 L 16.957031 43.695312 Z M 16.957031 16.695312 " clip-rule="nonzero"/></clipPath><clipPath id="4d18967a0c"><path d="M 18 36.613281 L 57 36.613281 L 57 44 L 18 44 Z M 18 36.613281 " clip-rule="nonzero"/></clipPath><clipPath id="efc4780834"><path d="M 12.003906 45 L 63.003906 45 L 63.003906 54.613281 L 12.003906 54.613281 Z M 12.003906 45 " clip-rule="nonzero"/></clipPath><clipPath id="42d27a3edf"><path d="M 33.671875 56.210938 L 35.171875 56.210938 L 35.171875 57.710938 L 33.671875 57.710938 Z M 33.671875 56.210938 " clip-rule="nonzero"/></clipPath><clipPath id="f4fbda8de6"><path d="M 39.953125 56.210938 L 41.453125 56.210938 L 41.453125 57.710938 L 39.953125 57.710938 Z M 39.953125 56.210938 " clip-rule="nonzero"/></clipPath><clipPath id="40c4995466"><path d="M 36.359375 56.210938 L 38.609375 56.210938 L 38.609375 58.460938 L 36.359375 58.460938 Z M 36.359375 56.210938 " clip-rule="nonzero"/></clipPath></defs><g clip-path="url(#285e5062d7)"><path fill="#ff0336" d="M 57.183594 20 C 55.96875 17.671875 54.164062 16.21875 52.980469 16.839844 C 52.867188 16.898438 52.417969 17.136719 52.300781 17.199219 C 52.082031 17.316406 51.90625 17.484375 51.773438 17.699219 C 51.570312 17.703125 51.378906 17.753906 51.199219 17.847656 L 50.503906 18.214844 C 49.9375 18.511719 49.625 19.179688 49.570312 20.039062 C 49.351562 20.003906 49.03125 20.167969 48.871094 20.285156 C 48.828125 20.316406 48.792969 20.355469 48.769531 20.402344 L 48.660156 20.597656 C 48.660156 20.597656 48.566406 20.582031 48.445312 20.574219 C 48.347656 20.566406 48.253906 20.589844 48.167969 20.636719 L 47.65625 20.929688 C 47.566406 21.035156 47.496094 21.152344 47.445312 21.28125 C 47.332031 21.246094 47.21875 21.230469 47.101562 21.230469 C 47.050781 21.230469 47.003906 21.246094 46.960938 21.273438 L 46.574219 21.519531 C 46.519531 21.558594 46.476562 21.605469 46.449219 21.667969 L 46.433594 21.699219 C 46.34375 21.898438 46.300781 22.105469 46.296875 22.320312 C 46.296875 22.421875 46.296875 22.527344 46.296875 22.632812 C 46.117188 22.515625 45.925781 22.417969 45.722656 22.347656 C 45.714844 22.480469 45.699219 22.617188 45.671875 22.75 C 45.902344 22.824219 46.113281 22.9375 46.304688 23.082031 C 46.3125 23.503906 46.347656 23.921875 46.414062 24.339844 C 46.429688 24.46875 46.488281 24.578125 46.585938 24.664062 L 46.289062 24.835938 C 46.128906 24.921875 46.164062 25.308594 46.367188 25.699219 C 46.570312 26.089844 46.867188 26.339844 47.027344 26.253906 L 47.5625 25.996094 C 47.945312 26.957031 48.027344 27.785156 47.75 28.078125 C 47.746094 28.085938 47.742188 28.089844 47.75 28.097656 C 47.753906 28.105469 47.757812 28.109375 47.765625 28.105469 C 47.800781 28.097656 47.832031 28.085938 47.863281 28.070312 C 48.3125 27.835938 48.304688 26.902344 47.90625 25.832031 L 48.144531 25.714844 C 48.625 27 48.585938 28.152344 47.988281 28.46875 C 47.273438 28.84375 46.03125 27.875 45.210938 26.308594 C 44.96875 25.84375 44.78125 25.359375 44.65625 24.851562 C 44.65625 24.851562 44.65625 24.847656 44.652344 24.847656 C 44.652344 24.847656 44.648438 24.847656 44.648438 24.851562 C 44.226562 25.332031 43.75 25.746094 43.210938 26.089844 C 43.320312 26.453125 43.464844 26.800781 43.640625 27.136719 C 44.222656 28.257812 45.070312 29.074219 45.894531 29.417969 C 45.902344 29.421875 45.90625 29.425781 45.90625 29.433594 C 45.90625 29.445312 45.898438 29.449219 45.890625 29.449219 C 45.136719 29.53125 44.109375 28.730469 43.402344 27.460938 C 43.398438 27.457031 43.394531 27.453125 43.390625 27.457031 C 43.382812 27.457031 43.382812 27.460938 43.382812 27.46875 C 43.417969 27.691406 43.488281 28.425781 42.824219 28.472656 C 42.585938 28.480469 42.351562 28.445312 42.125 28.371094 C 42.121094 28.371094 42.117188 28.371094 42.113281 28.375 C 42.109375 28.378906 42.109375 28.382812 42.113281 28.390625 C 43.089844 29.992188 44.636719 30.828125 45.695312 30.273438 L 46.335938 29.933594 C 46.496094 29.847656 46.636719 29.734375 46.75 29.59375 C 46.980469 29.589844 47.195312 29.535156 47.398438 29.429688 C 47.507812 29.371094 47.917969 29.15625 48.023438 29.101562 C 48.9375 28.617188 49.070312 27.195312 48.511719 25.652344 C 48.507812 25.644531 48.511719 25.636719 48.519531 25.632812 C 48.527344 25.628906 48.535156 25.628906 48.539062 25.636719 C 50.15625 27.785156 49.089844 29.679688 48.925781 31.464844 C 47.605469 31.039062 46.257812 31.667969 46.257812 31.667969 C 44.589844 30.164062 42.421875 30.890625 42.421875 30.890625 C 42.222656 30.292969 41.578125 29.992188 41.203125 29.046875 C 41.199219 29.039062 41.195312 29.039062 41.1875 29.039062 C 40.425781 29.332031 40.007812 30.0625 39.828125 30.457031 C 39.820312 30.476562 39.808594 30.480469 39.785156 30.476562 C 39.765625 30.46875 39.757812 30.457031 39.761719 30.4375 C 40.019531 28.921875 41.199219 28.609375 41.199219 28.609375 C 41.292969 28.230469 41.332031 27.84375 41.324219 27.449219 C 41.324219 27.441406 41.328125 27.4375 41.335938 27.433594 C 41.339844 27.433594 41.347656 27.433594 41.351562 27.4375 C 41.707031 27.808594 42.441406 28.058594 42.828125 28.121094 C 42.902344 28.132812 42.960938 28.113281 43.011719 28.0625 C 43.058594 28.007812 43.074219 27.945312 43.058594 27.875 C 42.910156 27.242188 42.644531 26.660156 42.269531 26.128906 C 42.269531 26.128906 45.3125 24.777344 45.3125 22.046875 C 45.3125 19.804688 43.339844 18.726562 43.785156 17.039062 C 43.785156 17.035156 43.785156 17.027344 43.78125 17.023438 C 43.773438 17.019531 43.769531 17.019531 43.765625 17.023438 C 42.992188 17.4375 42.84375 18.011719 42.789062 18.613281 C 42.71875 19.414062 43.242188 20.089844 43.242188 20.96875 C 43.242188 22.671875 41.722656 23.171875 41.722656 23.171875 C 41.496094 22.746094 40.949219 22.847656 40.675781 23.171875 C 39.777344 22.621094 38.382812 22.648438 37.582031 23.222656 C 36.785156 22.648438 35.390625 22.621094 34.492188 23.171875 C 34.21875 22.847656 33.667969 22.746094 33.445312 23.171875 C 33.445312 23.171875 31.925781 22.671875 31.925781 20.96875 C 31.925781 20.089844 32.449219 19.414062 32.378906 18.613281 C 32.324219 18.011719 32.175781 17.4375 31.402344 17.023438 C 31.398438 17.019531 31.394531 17.019531 31.386719 17.023438 C 31.382812 17.027344 31.382812 17.03125 31.382812 17.039062 C 31.828125 18.726562 29.855469 19.804688 29.855469 22.046875 C 29.855469 24.777344 32.898438 26.128906 32.898438 26.128906 C 32.523438 26.660156 32.257812 27.242188 32.109375 27.875 C 32.09375 27.945312 32.109375 28.007812 32.15625 28.0625 C 32.207031 28.113281 32.265625 28.132812 32.339844 28.121094 C 32.726562 28.058594 33.460938 27.808594 33.816406 27.4375 C 33.820312 27.433594 33.828125 27.433594 33.832031 27.433594 C 33.839844 27.4375 33.84375 27.441406 33.84375 27.449219 C 33.835938 27.84375 33.875 28.230469 33.96875 28.609375 C 33.96875 28.609375 35.148438 28.921875 35.40625 30.4375 C 35.410156 30.457031 35.402344 30.46875 35.382812 30.476562 C 35.359375 30.480469 35.347656 30.476562 35.339844 30.457031 C 35.160156 30.0625 34.742188 29.332031 33.980469 29.039062 C 33.972656 29.039062 33.96875 29.039062 33.964844 29.046875 C 33.589844 29.992188 32.945312 30.292969 32.746094 30.890625 C 32.746094 30.890625 30.578125 30.164062 28.910156 31.667969 C 28.910156 31.667969 27.5625 31.039062 26.242188 31.464844 C 26.078125 29.679688 25.007812 27.785156 26.628906 25.636719 C 26.632812 25.628906 26.640625 25.628906 26.648438 25.632812 C 26.65625 25.636719 26.65625 25.644531 26.65625 25.652344 C 26.097656 27.195312 26.226562 28.617188 27.140625 29.101562 C 27.246094 29.15625 27.660156 29.371094 27.765625 29.429688 C 27.96875 29.535156 28.1875 29.589844 28.414062 29.59375 C 28.53125 29.734375 28.671875 29.847656 28.832031 29.9375 L 29.46875 30.273438 C 30.53125 30.832031 32.078125 29.992188 33.054688 28.390625 C 33.058594 28.382812 33.054688 28.378906 33.054688 28.375 C 33.050781 28.371094 33.046875 28.371094 33.039062 28.371094 C 32.8125 28.449219 32.582031 28.480469 32.339844 28.472656 C 31.675781 28.429688 31.746094 27.691406 31.785156 27.46875 C 31.785156 27.460938 31.785156 27.457031 31.777344 27.457031 C 31.773438 27.453125 31.769531 27.457031 31.765625 27.460938 C 31.058594 28.730469 30.03125 29.53125 29.277344 29.449219 C 29.265625 29.449219 29.261719 29.445312 29.261719 29.4375 C 29.257812 29.425781 29.261719 29.421875 29.269531 29.417969 C 30.09375 29.074219 30.945312 28.257812 31.527344 27.136719 C 31.703125 26.800781 31.847656 26.453125 31.957031 26.089844 C 31.417969 25.746094 30.941406 25.332031 30.519531 24.851562 C 30.519531 24.847656 30.515625 24.847656 30.511719 24.847656 C 30.511719 24.851562 30.507812 24.851562 30.507812 24.855469 C 30.382812 25.359375 30.199219 25.847656 29.957031 26.308594 C 29.136719 27.875 27.894531 28.84375 27.179688 28.46875 C 26.582031 28.152344 26.542969 27 27.019531 25.714844 L 27.261719 25.832031 C 26.859375 26.902344 26.855469 27.835938 27.304688 28.070312 C 27.335938 28.089844 27.367188 28.101562 27.402344 28.109375 C 27.410156 28.109375 27.414062 28.105469 27.417969 28.097656 C 27.421875 28.09375 27.421875 28.085938 27.417969 28.078125 C 27.140625 27.785156 27.222656 26.957031 27.601562 25.996094 L 28.136719 26.253906 C 28.300781 26.339844 28.59375 26.089844 28.800781 25.699219 C 29.003906 25.308594 29.039062 24.921875 28.878906 24.835938 L 28.578125 24.664062 C 28.675781 24.578125 28.734375 24.46875 28.75 24.339844 C 28.820312 23.921875 28.855469 23.503906 28.863281 23.082031 C 29.054688 22.933594 29.261719 22.824219 29.492188 22.75 C 29.46875 22.617188 29.453125 22.484375 29.441406 22.34375 C 29.238281 22.417969 29.046875 22.515625 28.867188 22.632812 C 28.867188 22.527344 28.867188 22.421875 28.867188 22.320312 C 28.867188 22.101562 28.820312 21.894531 28.730469 21.699219 L 28.71875 21.671875 C 28.691406 21.609375 28.648438 21.558594 28.589844 21.519531 L 28.203125 21.273438 C 28.164062 21.246094 28.117188 21.230469 28.066406 21.230469 C 27.949219 21.230469 27.835938 21.246094 27.722656 21.28125 C 27.671875 21.152344 27.601562 21.035156 27.511719 20.929688 L 26.996094 20.640625 C 26.910156 20.589844 26.820312 20.566406 26.71875 20.574219 C 26.597656 20.582031 26.507812 20.601562 26.507812 20.601562 L 26.398438 20.40625 C 26.371094 20.359375 26.335938 20.320312 26.296875 20.285156 C 26.132812 20.167969 25.816406 20.003906 25.59375 20.039062 C 25.539062 19.179688 25.230469 18.511719 24.660156 18.214844 L 23.96875 17.847656 C 23.789062 17.753906 23.597656 17.703125 23.394531 17.699219 C 23.261719 17.484375 23.085938 17.316406 22.863281 17.199219 C 22.746094 17.136719 22.296875 16.898438 22.183594 16.839844 C 21.003906 16.21875 19.195312 17.671875 17.980469 20 C 16.765625 22.328125 16.605469 24.652344 17.785156 25.273438 C 17.902344 25.332031 18.347656 25.570312 18.464844 25.628906 C 18.691406 25.746094 18.925781 25.796875 19.179688 25.785156 C 19.296875 25.949219 19.445312 26.078125 19.625 26.171875 L 20.320312 26.539062 C 21.449219 27.132812 23.195312 26.058594 24.40625 24.105469 C 24.414062 24.09375 24.425781 24.089844 24.441406 24.09375 C 24.453125 24.101562 24.460938 24.113281 24.453125 24.128906 C 24.230469 24.773438 23.792969 25.6875 22.761719 26.6875 C 22.449219 29.019531 20.011719 32.402344 21.789062 35.492188 C 21.792969 35.496094 21.796875 35.5 21.804688 35.496094 C 21.8125 35.496094 21.8125 35.492188 21.8125 35.484375 C 21.75 35.128906 21.496094 33.421875 22.128906 32.15625 C 22.132812 32.148438 22.136719 32.148438 22.140625 32.148438 C 22.148438 32.152344 22.152344 32.15625 22.148438 32.164062 C 22.070312 32.527344 21.839844 33.929688 22.363281 36.472656 C 22.398438 36.644531 22.488281 36.789062 22.621094 36.902344 C 22.757812 37.011719 22.917969 37.070312 23.09375 37.070312 L 23.097656 37.070312 C 23.539062 37.070312 23.9375 37.203125 24.289062 37.46875 C 25.046875 38.042969 26.550781 38.785156 28.269531 38.339844 C 28.292969 38.335938 28.308594 38.34375 28.316406 38.367188 C 28.753906 39.644531 29.390625 40.808594 30.226562 41.863281 C 30.226562 41.863281 30.269531 42.105469 30.351562 42.496094 C 32.230469 42.964844 37.40625 43.695312 37.582031 43.695312 C 37.753906 43.695312 42.929688 42.964844 44.808594 42.496094 C 44.890625 42.105469 44.9375 41.863281 44.9375 41.863281 C 45.773438 40.808594 46.40625 39.644531 46.84375 38.367188 C 46.851562 38.34375 46.867188 38.335938 46.894531 38.339844 C 48.613281 38.785156 50.113281 38.042969 50.871094 37.46875 C 51.226562 37.203125 51.621094 37.070312 52.0625 37.070312 L 52.070312 37.070312 C 52.246094 37.070312 52.402344 37.011719 52.539062 36.902344 C 52.675781 36.789062 52.761719 36.648438 52.796875 36.476562 C 53.324219 33.929688 53.09375 32.527344 53.011719 32.164062 C 53.011719 32.15625 53.011719 32.152344 53.019531 32.148438 C 53.023438 32.148438 53.03125 32.148438 53.03125 32.15625 C 53.667969 33.425781 53.410156 35.128906 53.347656 35.484375 C 53.347656 35.492188 53.351562 35.496094 53.355469 35.496094 C 53.363281 35.5 53.367188 35.496094 53.371094 35.492188 C 55.152344 32.402344 52.710938 29.023438 52.402344 26.6875 C 51.371094 25.691406 50.9375 24.78125 50.710938 24.140625 C 50.703125 24.121094 50.707031 24.109375 50.722656 24.101562 C 50.738281 24.09375 50.753906 24.097656 50.761719 24.113281 C 51.96875 26.0625 53.714844 27.132812 54.84375 26.539062 L 55.535156 26.171875 C 55.714844 26.078125 55.863281 25.949219 55.984375 25.785156 C 56.234375 25.796875 56.472656 25.746094 56.695312 25.628906 C 56.8125 25.570312 57.261719 25.332031 57.375 25.273438 C 58.558594 24.652344 58.398438 22.328125 57.183594 20 Z M 41.664062 23.921875 C 42.820312 23.535156 43.664062 22.324219 43.648438 21.183594 C 43.625 19.878906 43.085938 19.359375 43.074219 18.613281 C 43.070312 18.308594 43.15625 17.824219 43.492188 17.539062 C 43.496094 17.535156 43.5 17.535156 43.503906 17.539062 C 43.507812 17.542969 43.511719 17.546875 43.507812 17.550781 C 43.222656 18.945312 44.859375 20.089844 44.621094 22.140625 C 44.347656 24.449219 42.121094 25.007812 41.683594 25.09375 C 41.671875 25.097656 41.664062 25.078125 41.675781 25.074219 C 43.980469 23.871094 44.097656 22.269531 44.097656 21.9375 C 44.097656 21.933594 44.09375 21.929688 44.085938 21.929688 C 44.082031 21.929688 44.078125 21.929688 44.074219 21.9375 C 43.457031 23.761719 42.007812 23.929688 41.664062 23.941406 C 41.660156 23.941406 41.65625 23.941406 41.652344 23.933594 C 41.652344 23.925781 41.65625 23.921875 41.664062 23.921875 Z M 41.691406 26.332031 C 42.09375 26.5 42.492188 27.0625 42.585938 27.53125 C 42.59375 27.578125 42.574219 27.59375 42.527344 27.585938 C 41.855469 27.460938 41.402344 27.0625 41.292969 26.679688 C 41.261719 26.558594 41.292969 26.460938 41.386719 26.382812 C 41.476562 26.300781 41.578125 26.285156 41.691406 26.332031 Z M 30.546875 22.140625 C 30.304688 20.089844 31.941406 18.945312 31.65625 17.550781 C 31.65625 17.546875 31.65625 17.542969 31.660156 17.539062 C 31.667969 17.535156 31.671875 17.535156 31.675781 17.539062 C 32.007812 17.824219 32.097656 18.308594 32.089844 18.613281 C 32.078125 19.359375 31.539062 19.878906 31.519531 21.183594 C 31.5 22.324219 32.34375 23.535156 33.503906 23.921875 C 33.507812 23.921875 33.511719 23.925781 33.511719 23.933594 C 33.511719 23.941406 33.507812 23.941406 33.5 23.941406 C 33.15625 23.929688 31.707031 23.761719 31.089844 21.9375 C 31.085938 21.925781 31.066406 21.925781 31.066406 21.9375 C 31.066406 22.269531 31.183594 23.871094 33.488281 25.074219 C 33.492188 25.074219 33.496094 25.082031 33.492188 25.085938 C 33.492188 25.09375 33.488281 25.097656 33.480469 25.09375 C 33.042969 25.007812 30.816406 24.449219 30.546875 22.140625 Z M 33.875 26.679688 C 33.765625 27.0625 33.3125 27.460938 32.636719 27.585938 C 32.59375 27.59375 32.574219 27.578125 32.582031 27.53125 C 32.671875 27.0625 33.074219 26.5 33.476562 26.332031 C 33.585938 26.285156 33.691406 26.300781 33.78125 26.382812 C 33.871094 26.460938 33.902344 26.558594 33.875 26.679688 Z M 17.871094 24.496094 C 17.09375 24.085938 17.296875 22.15625 18.328125 20.183594 C 19.355469 18.210938 20.820312 16.941406 21.597656 17.351562 C 22.375 17.761719 22.171875 19.691406 21.140625 21.664062 C 20.113281 23.640625 18.648438 24.90625 17.871094 24.496094 Z M 23.203125 22.75 C 22.296875 24.484375 21 25.632812 20.121094 25.550781 C 20.113281 25.550781 20.109375 25.546875 20.109375 25.542969 C 20.109375 25.535156 20.109375 25.53125 20.117188 25.527344 C 21.078125 25.0625 22.105469 23.996094 22.851562 22.566406 C 23.59375 21.136719 23.886719 19.679688 23.71875 18.621094 C 23.71875 18.613281 23.722656 18.609375 23.726562 18.605469 C 23.730469 18.605469 23.734375 18.605469 23.738281 18.609375 C 24.308594 19.289062 24.105469 21.019531 23.203125 22.75 Z M 48.992188 23.078125 C 48.976562 23.078125 48.964844 23.070312 48.957031 23.050781 C 48.882812 22.808594 48.835938 22.5625 48.808594 22.308594 C 48.800781 22.246094 48.765625 22.214844 48.699219 22.214844 C 48.636719 22.214844 48.601562 22.246094 48.589844 22.308594 C 48.558594 22.617188 48.554688 22.925781 48.578125 23.238281 C 48.578125 23.246094 48.578125 23.25 48.574219 23.257812 C 48.378906 23.625 47.753906 23.734375 47.707031 23.625 C 47.640625 23.300781 47.597656 22.976562 47.574219 22.648438 C 47.5625 22.539062 47.382812 22.5625 47.359375 22.667969 C 47.292969 23 47.320312 23.96875 47.320312 23.96875 C 47.199219 24.160156 46.917969 24.222656 46.8125 24.238281 C 46.785156 24.242188 46.769531 24.230469 46.765625 24.203125 C 46.664062 23.539062 46.628906 22.867188 46.660156 22.195312 C 46.675781 22.066406 46.746094 21.882812 47.089844 21.71875 C 47.261719 21.726562 47.429688 21.757812 47.59375 21.808594 C 47.59375 21.808594 47.695312 21.535156 47.726562 21.492188 C 47.890625 21.277344 48.105469 21.144531 48.371094 21.089844 C 48.460938 21.070312 48.851562 21.191406 48.851562 21.191406 L 49.003906 20.855469 C 49.136719 20.679688 49.3125 20.585938 49.53125 20.570312 C 49.558594 20.570312 49.570312 20.582031 49.574219 20.609375 C 49.605469 21.109375 49.695312 21.601562 49.84375 22.082031 C 49.859375 22.253906 49.851562 22.425781 49.824219 22.597656 C 49.699219 22.867188 49.140625 23.085938 48.992188 23.078125 Z M 40.664062 27.050781 C 40.722656 27.289062 40.714844 27.710938 40.5625 27.90625 C 40.558594 27.910156 40.558594 27.914062 40.558594 27.917969 C 40.5625 27.921875 40.5625 27.921875 40.570312 27.925781 C 40.710938 27.945312 40.851562 27.925781 40.980469 27.863281 C 40.988281 27.859375 40.992188 27.859375 40.996094 27.863281 C 41 27.867188 41 27.871094 40.996094 27.878906 C 40.890625 28.089844 40.34375 28.640625 39.507812 28.308594 C 39.503906 28.304688 39.5 28.300781 39.5 28.292969 C 39.5 28.289062 39.503906 28.285156 39.511719 28.285156 C 39.726562 28.273438 40.472656 28.152344 40.625 27.054688 C 40.628906 27.042969 40.632812 27.039062 40.644531 27.039062 C 40.65625 27.035156 40.660156 27.042969 40.664062 27.050781 Z M 38.378906 32.242188 C 38.382812 32.285156 38.394531 32.324219 38.421875 32.359375 C 38.457031 32.402344 38.46875 32.457031 38.453125 32.511719 C 38.4375 32.570312 38.402344 32.609375 38.347656 32.628906 C 37.835938 32.804688 37.328125 32.804688 36.820312 32.628906 C 36.765625 32.609375 36.730469 32.570312 36.714844 32.511719 C 36.699219 32.457031 36.707031 32.402344 36.746094 32.359375 C 36.773438 32.324219 36.785156 32.285156 36.785156 32.242188 C 36.773438 31.753906 36.101562 31.828125 36.1875 32.230469 C 36.242188 32.492188 36.1875 32.554688 36.074219 32.554688 C 35.976562 32.554688 35.550781 32.066406 35.550781 31.90625 C 35.550781 31.753906 35.8125 31.628906 35.929688 31.226562 C 35.964844 31.136719 36.03125 31.070312 36.121094 31.035156 C 36.210938 31 36.300781 31.003906 36.386719 31.046875 C 37.183594 31.402344 37.980469 31.402344 38.777344 31.046875 C 38.867188 31.003906 38.957031 31 39.046875 31.035156 C 39.136719 31.070312 39.199219 31.136719 39.234375 31.226562 C 39.351562 31.628906 39.613281 31.753906 39.613281 31.90625 C 39.613281 32.066406 39.191406 32.554688 39.089844 32.554688 C 38.980469 32.554688 38.921875 32.492188 38.980469 32.230469 C 39.066406 31.828125 38.394531 31.753906 38.378906 32.242188 Z M 35.351562 27.746094 C 35.164062 27.671875 34.90625 27.4375 34.914062 26.878906 C 34.914062 26.871094 34.917969 26.867188 34.925781 26.867188 C 35.207031 26.824219 35.472656 26.878906 35.714844 27.03125 C 36.015625 27.25 35.992188 27.648438 36.070312 27.871094 C 36.074219 27.878906 36.070312 27.886719 36.0625 27.890625 C 36.054688 27.898438 36.046875 27.898438 36.042969 27.890625 C 35.832031 27.738281 35.527344 27.816406 35.351562 27.746094 Z M 39.097656 27.871094 C 39.171875 27.648438 39.152344 27.25 39.449219 27.03125 C 39.695312 26.878906 39.957031 26.824219 40.238281 26.867188 C 40.246094 26.867188 40.25 26.871094 40.25 26.878906 C 40.261719 27.4375 40 27.671875 39.816406 27.746094 C 39.636719 27.816406 39.335938 27.738281 39.125 27.890625 C 39.117188 27.898438 39.109375 27.898438 39.101562 27.890625 C 39.09375 27.886719 39.09375 27.878906 39.097656 27.871094 Z M 34.714844 23.773438 C 35.03125 23.722656 35.332031 23.769531 35.613281 23.914062 C 35.898438 24.0625 36.113281 24.28125 36.257812 24.566406 C 36.261719 24.574219 36.265625 24.574219 36.273438 24.574219 C 36.277344 24.570312 36.28125 24.566406 36.28125 24.558594 C 36.183594 23.730469 35.433594 23.453125 35.222656 23.390625 C 35.210938 23.386719 35.207031 23.378906 35.207031 23.371094 C 35.207031 23.363281 35.210938 23.355469 35.21875 23.351562 C 36.503906 22.867188 37.242188 23.527344 37.550781 23.972656 C 37.570312 24.003906 37.59375 24.003906 37.617188 23.972656 C 37.925781 23.527344 38.664062 22.867188 39.945312 23.351562 C 39.953125 23.355469 39.957031 23.363281 39.957031 23.371094 C 39.957031 23.378906 39.953125 23.386719 39.945312 23.390625 C 39.730469 23.453125 38.984375 23.730469 38.886719 24.558594 C 38.882812 24.566406 38.886719 24.570312 38.894531 24.574219 C 38.898438 24.574219 38.90625 24.574219 38.90625 24.566406 C 39.050781 24.28125 39.265625 24.0625 39.550781 23.914062 C 39.835938 23.769531 40.136719 23.722656 40.453125 23.773438 C 40.46875 23.773438 40.472656 23.78125 40.464844 23.796875 C 40.265625 24.460938 40.226562 25.132812 40.347656 25.816406 C 40.347656 25.824219 40.347656 25.832031 40.335938 25.835938 C 40.050781 25.992188 39.804688 26.203125 39.605469 26.464844 C 39.601562 26.472656 39.59375 26.472656 39.582031 26.46875 C 39.574219 26.464844 39.570312 26.457031 39.574219 26.445312 C 39.664062 26.128906 39.835938 25.863281 40.09375 25.652344 C 40.097656 25.648438 40.101562 25.644531 40.097656 25.640625 C 40.09375 25.636719 40.089844 25.632812 40.085938 25.632812 C 39.707031 25.695312 38.765625 26.417969 39.054688 26.730469 C 39.054688 26.730469 38.09375 28.308594 37.617188 27.570312 C 37.59375 27.535156 37.570312 27.535156 37.550781 27.570312 C 37.070312 28.308594 36.109375 26.730469 36.109375 26.730469 C 36.398438 26.417969 35.460938 25.695312 35.078125 25.632812 C 35.074219 25.632812 35.070312 25.636719 35.066406 25.640625 C 35.066406 25.644531 35.066406 25.648438 35.070312 25.652344 C 35.328125 25.863281 35.5 26.128906 35.59375 26.445312 C 35.59375 26.457031 35.589844 26.464844 35.582031 26.46875 C 35.574219 26.472656 35.566406 26.472656 35.558594 26.464844 C 35.359375 26.203125 35.113281 25.992188 34.828125 25.835938 C 34.820312 25.832031 34.816406 25.824219 34.816406 25.816406 C 34.9375 25.132812 34.898438 24.460938 34.699219 23.796875 C 34.691406 23.78125 34.695312 23.773438 34.714844 23.773438 Z M 34.167969 27.878906 C 34.164062 27.871094 34.167969 27.867188 34.171875 27.863281 C 34.175781 27.859375 34.179688 27.859375 34.183594 27.863281 C 34.316406 27.925781 34.453125 27.945312 34.597656 27.925781 C 34.601562 27.921875 34.605469 27.921875 34.605469 27.917969 C 34.605469 27.914062 34.605469 27.910156 34.605469 27.90625 C 34.449219 27.710938 34.441406 27.289062 34.503906 27.050781 C 34.503906 27.042969 34.511719 27.035156 34.523438 27.039062 C 34.53125 27.039062 34.539062 27.042969 34.539062 27.054688 C 34.695312 28.152344 35.4375 28.273438 35.652344 28.285156 C 35.660156 28.285156 35.664062 28.289062 35.664062 28.292969 C 35.664062 28.300781 35.664062 28.304688 35.65625 28.308594 C 34.824219 28.640625 34.273438 28.089844 34.167969 27.878906 Z M 25.324219 22.082031 C 25.46875 21.601562 25.558594 21.109375 25.59375 20.609375 C 25.597656 20.582031 25.609375 20.570312 25.636719 20.574219 C 25.855469 20.585938 26.03125 20.679688 26.164062 20.855469 L 26.3125 21.195312 C 26.3125 21.195312 26.703125 21.070312 26.792969 21.09375 C 27.058594 21.144531 27.273438 21.277344 27.441406 21.492188 C 27.472656 21.535156 27.574219 21.808594 27.574219 21.808594 C 27.738281 21.757812 27.90625 21.730469 28.078125 21.722656 C 28.421875 21.882812 28.488281 22.066406 28.507812 22.195312 C 28.539062 22.871094 28.503906 23.539062 28.402344 24.207031 C 28.398438 24.234375 28.382812 24.242188 28.355469 24.238281 C 28.25 24.222656 27.96875 24.160156 27.847656 23.96875 C 27.847656 23.96875 27.875 23 27.804688 22.671875 C 27.785156 22.5625 27.605469 22.542969 27.59375 22.652344 C 27.570312 22.980469 27.527344 23.304688 27.460938 23.625 C 27.410156 23.738281 26.785156 23.628906 26.59375 23.261719 C 26.589844 23.253906 26.589844 23.246094 26.589844 23.238281 C 26.609375 22.929688 26.605469 22.621094 26.574219 22.3125 C 26.566406 22.246094 26.53125 22.214844 26.464844 22.214844 C 26.402344 22.214844 26.363281 22.246094 26.355469 22.3125 C 26.332031 22.5625 26.28125 22.8125 26.207031 23.050781 C 26.203125 23.070312 26.191406 23.078125 26.171875 23.082031 C 26.027344 23.085938 25.46875 22.871094 25.34375 22.597656 C 25.316406 22.425781 25.308594 22.253906 25.324219 22.082031 Z M 24.675781 33.035156 C 24.453125 32.554688 24.507812 31.695312 24.539062 31.273438 C 24.539062 31.269531 24.535156 31.265625 24.53125 31.261719 C 24.523438 31.261719 24.519531 31.261719 24.515625 31.269531 C 24.296875 31.707031 24.273438 32.316406 24.3125 32.851562 C 24.3125 32.859375 24.308594 32.863281 24.304688 32.863281 C 24.296875 32.867188 24.292969 32.863281 24.289062 32.855469 C 23.519531 30.660156 24.78125 27.234375 25.097656 26.496094 C 25.101562 26.488281 25.109375 26.484375 25.117188 26.488281 C 25.128906 26.492188 25.132812 26.496094 25.128906 26.507812 C 24.816406 27.976562 25.847656 30.644531 25.765625 32.117188 C 25.757812 32.464844 25.667969 32.785156 25.496094 33.085938 C 25.394531 33.238281 25.253906 33.3125 25.070312 33.300781 C 24.886719 33.289062 24.753906 33.199219 24.675781 33.035156 Z M 29.488281 33.425781 C 29.117188 33.046875 28.796875 33.046875 28.679688 33.058594 C 28.675781 33.0625 28.671875 33.0625 28.671875 33.070312 C 28.671875 33.078125 28.671875 33.082031 28.679688 33.082031 C 29.15625 33.242188 29.5 34.347656 28.632812 34.347656 C 27.808594 34.347656 27.109375 33.351562 27 33.191406 C 27 33.1875 26.996094 33.1875 26.988281 33.1875 C 26.984375 33.1875 26.980469 33.191406 26.980469 33.195312 C 26.875 33.660156 26.710938 34.101562 26.488281 34.523438 C 27.066406 35.167969 27.785156 35.535156 28.648438 35.621094 C 28.660156 35.621094 28.660156 35.640625 28.644531 35.644531 C 26.457031 35.90625 25.714844 34.796875 25.714844 34.796875 C 26.105469 34.007812 26.300781 33.175781 26.308594 32.292969 C 28.367188 31.5625 29.484375 33.097656 29.507812 33.417969 C 29.507812 33.429688 29.492188 33.433594 29.488281 33.425781 Z M 29.71875 32.125 C 31.957031 31.550781 32.902344 32.800781 32.945312 33.042969 C 32.996094 33.320312 32.820312 33.644531 32.472656 33.570312 C 32.222656 33.515625 31.625 32.945312 31.179688 32.847656 C 31.171875 32.847656 31.167969 32.851562 31.167969 32.855469 C 31.164062 32.859375 31.164062 32.863281 31.167969 32.867188 C 31.457031 33.28125 31.527344 33.730469 31.386719 34.214844 C 31.382812 34.222656 31.378906 34.222656 31.375 34.222656 C 31.371094 34.222656 31.367188 34.222656 31.363281 34.214844 C 31.125 33.535156 30.574219 32.652344 29.714844 32.148438 C 29.710938 32.144531 29.710938 32.140625 29.710938 32.136719 C 29.710938 32.128906 29.714844 32.125 29.71875 32.125 Z M 32.246094 40.984375 C 32.019531 40.863281 31.144531 40.351562 30.714844 39.601562 C 30.710938 39.59375 30.703125 39.589844 30.695312 39.59375 C 30.6875 39.597656 30.683594 39.601562 30.6875 39.609375 C 30.71875 39.835938 30.886719 40.53125 31.699219 41.527344 C 31.703125 41.53125 31.703125 41.535156 31.699219 41.539062 C 31.695312 41.546875 31.6875 41.546875 31.683594 41.542969 C 31.339844 41.300781 29.78125 40.085938 29.925781 38.066406 C 29.925781 38.054688 29.941406 38.050781 29.945312 38.0625 C 30.03125 38.308594 30.175781 38.519531 30.378906 38.6875 C 30.382812 38.691406 30.386719 38.691406 30.390625 38.6875 C 30.394531 38.6875 30.398438 38.683594 30.394531 38.675781 C 30.359375 38.515625 30.210938 37.75 30.386719 37.109375 C 30.390625 37.101562 30.394531 37.101562 30.398438 37.101562 C 30.40625 37.101562 30.410156 37.105469 30.410156 37.109375 C 30.589844 38.472656 31.058594 39.578125 32.257812 40.964844 C 32.261719 40.96875 32.261719 40.976562 32.257812 40.980469 C 32.253906 40.984375 32.25 40.988281 32.246094 40.984375 Z M 32.960938 38.355469 C 33.175781 38.417969 34.210938 38.6875 35.066406 38.464844 C 35.070312 38.460938 35.074219 38.457031 35.074219 38.453125 C 35.074219 38.445312 35.070312 38.441406 35.0625 38.441406 C 34.703125 38.417969 33.167969 38.269531 32.425781 37.277344 C 32.425781 37.273438 32.421875 37.269531 32.425781 37.265625 C 32.429688 37.261719 32.433594 37.257812 32.4375 37.257812 C 32.964844 37.339844 33.492188 37.339844 34.019531 37.261719 C 34.023438 37.257812 34.027344 37.257812 34.027344 37.25 C 34.03125 37.246094 34.027344 37.242188 34.023438 37.238281 C 33.824219 37.144531 32.804688 36.625 32.769531 36.015625 C 32.734375 35.355469 33.40625 35.128906 34.117188 35.425781 C 34.132812 35.433594 34.136719 35.425781 34.136719 35.414062 C 34.09375 35.285156 34.027344 35.175781 33.929688 35.085938 C 33.925781 35.082031 33.925781 35.078125 33.925781 35.074219 C 33.929688 35.070312 33.933594 35.066406 33.9375 35.066406 C 34.320312 35.039062 34.683594 35.117188 35.023438 35.296875 C 35.03125 35.300781 35.035156 35.300781 35.039062 35.296875 C 35.042969 35.292969 35.042969 35.289062 35.039062 35.285156 C 34.972656 35.128906 34.59375 34.386719 33.515625 34.046875 C 33.511719 34.042969 33.507812 34.039062 33.507812 34.035156 C 33.507812 34.027344 33.511719 34.027344 33.515625 34.023438 C 33.691406 33.980469 34.507812 33.835938 35.878906 34.519531 C 35.886719 34.523438 35.894531 34.519531 35.898438 34.515625 C 35.90625 34.507812 35.90625 34.5 35.902344 34.492188 C 35.761719 34.292969 35.589844 34.132812 35.382812 34.007812 C 35.375 34.003906 35.375 34 35.375 33.996094 C 35.378906 33.988281 35.382812 33.988281 35.386719 33.988281 C 35.90625 34.015625 36.78125 34.316406 37.023438 34.898438 C 37.023438 34.898438 37.03125 34.929688 37.042969 34.984375 C 37.046875 34.992188 37.042969 35 37.035156 35.003906 C 37.027344 35.007812 37.019531 35.007812 37.015625 35 C 36.882812 34.890625 36.730469 34.824219 36.558594 34.804688 C 36.554688 34.804688 36.550781 34.808594 36.546875 34.8125 C 36.542969 34.820312 36.546875 34.824219 36.550781 34.828125 C 36.671875 34.925781 37.0625 35.300781 37.144531 36.109375 C 37.144531 36.113281 37.140625 36.117188 37.136719 36.121094 C 37.132812 36.121094 37.128906 36.121094 37.125 36.117188 C 36.980469 35.96875 36.804688 35.894531 36.597656 35.894531 C 36.589844 35.898438 36.585938 35.902344 36.585938 35.90625 C 36.585938 35.914062 36.585938 35.917969 36.59375 35.917969 C 36.832031 36.035156 37.285156 36.492188 37.128906 37.085938 C 37.09375 37.300781 36.972656 37.433594 36.761719 37.484375 C 36.75 37.488281 36.75 37.496094 36.757812 37.503906 C 36.875 37.578125 36.992188 37.585938 37.117188 37.527344 C 37.128906 37.523438 37.132812 37.523438 37.136719 37.535156 C 37.210938 38.34375 36.449219 39.058594 35.015625 38.984375 C 33.585938 38.90625 33.070312 38.492188 32.949219 38.375 C 32.941406 38.371094 32.941406 38.367188 32.945312 38.359375 C 32.949219 38.351562 32.953125 38.351562 32.960938 38.355469 Z M 37.085938 42.554688 C 36.996094 42.675781 34.894531 43.394531 35.183594 41.308594 C 35.183594 41.300781 35.183594 41.296875 35.175781 41.296875 C 35.171875 41.292969 35.167969 41.292969 35.164062 41.296875 C 35.003906 41.523438 34.925781 41.777344 34.925781 42.054688 C 34.925781 42.328125 35.003906 42.582031 35.164062 42.808594 C 35.164062 42.8125 35.164062 42.816406 35.164062 42.820312 C 35.160156 42.824219 35.15625 42.824219 35.152344 42.824219 C 34.878906 42.757812 33.941406 41.6875 34.925781 40.394531 C 34.933594 40.386719 34.933594 40.378906 34.929688 40.375 C 34.925781 40.367188 34.917969 40.363281 34.914062 40.363281 C 34.296875 40.421875 33.851562 40.140625 33.640625 39.824219 C 33.640625 39.816406 33.640625 39.8125 33.644531 39.808594 C 33.648438 39.804688 33.652344 39.804688 33.65625 39.808594 C 34.304688 40.167969 35.40625 39.855469 36.066406 39.539062 C 36.238281 39.457031 36.417969 39.433594 36.601562 39.476562 C 36.851562 39.53125 37.175781 39.664062 37.320312 39.972656 C 37.484375 41.449219 37.171875 42.425781 37.085938 42.550781 Z M 36.820312 33.164062 C 36.792969 33.125 36.796875 33.089844 36.824219 33.054688 C 36.851562 33.019531 36.886719 33.007812 36.929688 33.023438 C 37.136719 33.125 37.351562 33.132812 37.566406 33.046875 C 37.578125 33.042969 37.589844 33.042969 37.597656 33.046875 C 37.816406 33.132812 38.027344 33.125 38.238281 33.023438 C 38.28125 33.007812 38.316406 33.019531 38.34375 33.054688 C 38.371094 33.089844 38.371094 33.125 38.347656 33.164062 C 38.253906 33.304688 38.046875 33.457031 37.582031 33.457031 C 37.117188 33.457031 36.910156 33.304688 36.820312 33.164062 Z M 40.253906 40.363281 C 40.246094 40.363281 40.238281 40.367188 40.234375 40.375 C 40.234375 40.378906 40.234375 40.386719 40.238281 40.390625 C 41.222656 41.6875 40.289062 42.757812 40.015625 42.824219 C 40.007812 42.824219 40.003906 42.824219 40.003906 42.820312 C 40 42.816406 40 42.8125 40.003906 42.808594 C 40.160156 42.582031 40.238281 42.328125 40.238281 42.050781 C 40.238281 41.777344 40.160156 41.523438 40.003906 41.296875 C 40 41.292969 39.996094 41.292969 39.988281 41.292969 C 39.984375 41.296875 39.980469 41.300781 39.984375 41.308594 C 40.269531 43.394531 38.167969 42.675781 38.082031 42.550781 C 37.996094 42.429688 37.683594 41.449219 37.84375 39.972656 C 37.988281 39.664062 38.3125 39.53125 38.5625 39.472656 C 38.746094 39.433594 38.925781 39.457031 39.097656 39.539062 C 39.757812 39.855469 40.859375 40.164062 41.507812 39.808594 C 41.511719 39.804688 41.515625 39.804688 41.519531 39.808594 C 41.523438 39.8125 41.523438 39.816406 41.523438 39.824219 C 41.316406 40.140625 40.867188 40.421875 40.253906 40.363281 Z M 42.738281 37.277344 C 41.996094 38.269531 40.460938 38.417969 40.101562 38.441406 C 40.097656 38.441406 40.09375 38.445312 40.09375 38.453125 C 40.09375 38.457031 40.09375 38.460938 40.101562 38.464844 C 40.957031 38.683594 41.988281 38.417969 42.203125 38.355469 C 42.210938 38.355469 42.214844 38.355469 42.21875 38.359375 C 42.222656 38.367188 42.21875 38.371094 42.214844 38.375 C 42.097656 38.492188 41.582031 38.90625 40.152344 38.980469 C 38.714844 39.058594 37.957031 38.34375 38.03125 37.535156 C 38.03125 37.523438 38.039062 37.519531 38.046875 37.527344 C 38.171875 37.585938 38.292969 37.578125 38.40625 37.5 C 38.414062 37.492188 38.414062 37.488281 38.402344 37.480469 C 38.195312 37.429688 38.074219 37.296875 38.035156 37.085938 C 37.878906 36.492188 38.332031 36.03125 38.574219 35.917969 C 38.578125 35.914062 38.582031 35.910156 38.578125 35.90625 C 38.578125 35.898438 38.574219 35.894531 38.570312 35.894531 C 38.359375 35.890625 38.1875 35.964844 38.042969 36.117188 C 38.039062 36.121094 38.035156 36.121094 38.027344 36.117188 C 38.023438 36.117188 38.023438 36.113281 38.023438 36.105469 C 38.101562 35.296875 38.492188 34.925781 38.617188 34.828125 C 38.621094 34.824219 38.621094 34.816406 38.621094 34.8125 C 38.617188 34.808594 38.613281 34.804688 38.605469 34.804688 C 38.433594 34.824219 38.285156 34.890625 38.152344 35 C 38.144531 35.007812 38.136719 35.007812 38.128906 35.003906 C 38.121094 34.996094 38.121094 34.992188 38.121094 34.984375 C 38.136719 34.929688 38.144531 34.898438 38.144531 34.898438 C 38.386719 34.316406 39.257812 34.015625 39.777344 33.984375 C 39.785156 33.984375 39.789062 33.988281 39.789062 33.996094 C 39.792969 34 39.789062 34.003906 39.785156 34.007812 C 39.574219 34.128906 39.402344 34.292969 39.265625 34.492188 C 39.261719 34.5 39.261719 34.507812 39.265625 34.511719 C 39.273438 34.519531 39.28125 34.519531 39.289062 34.515625 C 40.660156 33.832031 41.472656 33.976562 41.648438 34.023438 C 41.652344 34.023438 41.65625 34.027344 41.65625 34.035156 C 41.65625 34.039062 41.652344 34.042969 41.648438 34.042969 C 40.574219 34.386719 40.195312 35.128906 40.125 35.28125 C 40.125 35.289062 40.125 35.292969 40.128906 35.296875 C 40.132812 35.296875 40.136719 35.300781 40.140625 35.296875 C 40.480469 35.117188 40.84375 35.039062 41.230469 35.0625 C 41.234375 35.066406 41.238281 35.066406 41.238281 35.070312 C 41.238281 35.078125 41.238281 35.082031 41.234375 35.082031 C 41.140625 35.175781 41.074219 35.285156 41.03125 35.410156 C 41.027344 35.425781 41.035156 35.429688 41.046875 35.425781 C 41.761719 35.128906 42.433594 35.355469 42.394531 36.011719 C 42.359375 36.621094 41.339844 37.144531 41.144531 37.238281 C 41.136719 37.238281 41.136719 37.242188 41.136719 37.25 C 41.136719 37.253906 41.140625 37.257812 41.144531 37.257812 C 41.671875 37.339844 42.199219 37.339844 42.726562 37.257812 C 42.734375 37.257812 42.738281 37.257812 42.742188 37.261719 C 42.742188 37.269531 42.742188 37.273438 42.738281 37.277344 Z M 43.484375 41.542969 C 43.472656 41.550781 43.460938 41.535156 43.46875 41.523438 C 44.28125 40.53125 44.445312 39.835938 44.480469 39.609375 C 44.480469 39.601562 44.480469 39.59375 44.46875 39.59375 C 44.460938 39.589844 44.457031 39.59375 44.453125 39.601562 C 44.023438 40.351562 43.144531 40.863281 42.921875 40.984375 C 42.914062 40.988281 42.910156 40.984375 42.90625 40.980469 C 42.902344 40.972656 42.902344 40.96875 42.910156 40.964844 C 44.109375 39.578125 44.578125 38.472656 44.757812 37.109375 C 44.757812 37.105469 44.761719 37.101562 44.765625 37.101562 C 44.773438 37.101562 44.777344 37.101562 44.78125 37.109375 C 44.953125 37.746094 44.804688 38.515625 44.769531 38.675781 C 44.769531 38.683594 44.773438 38.6875 44.777344 38.6875 C 44.78125 38.691406 44.785156 38.691406 44.789062 38.6875 C 44.992188 38.519531 45.132812 38.308594 45.21875 38.0625 C 45.222656 38.050781 45.242188 38.054688 45.242188 38.066406 C 45.382812 40.082031 43.824219 41.300781 43.484375 41.542969 Z M 45.449219 32.148438 C 44.589844 32.652344 44.039062 33.535156 43.800781 34.214844 C 43.800781 34.222656 43.796875 34.222656 43.792969 34.222656 C 43.785156 34.222656 43.78125 34.222656 43.78125 34.214844 C 43.636719 33.730469 43.710938 33.28125 44 32.867188 C 44 32.863281 44.003906 32.859375 44 32.855469 C 43.996094 32.851562 43.992188 32.847656 43.988281 32.847656 C 43.542969 32.945312 42.941406 33.515625 42.695312 33.570312 C 42.34375 33.644531 42.171875 33.320312 42.21875 33.042969 C 42.265625 32.800781 43.210938 31.550781 45.445312 32.125 C 45.453125 32.125 45.453125 32.128906 45.457031 32.136719 C 45.457031 32.140625 45.453125 32.144531 45.449219 32.148438 Z M 46.519531 35.644531 C 46.503906 35.640625 46.503906 35.621094 46.519531 35.621094 C 47.378906 35.535156 48.097656 35.167969 48.675781 34.523438 C 48.457031 34.101562 48.292969 33.660156 48.183594 33.195312 C 48.183594 33.191406 48.179688 33.1875 48.175781 33.1875 C 48.171875 33.1875 48.167969 33.1875 48.164062 33.191406 C 48.058594 33.351562 47.359375 34.347656 46.535156 34.347656 C 45.664062 34.347656 46.011719 33.242188 46.488281 33.082031 C 46.492188 33.082031 46.496094 33.078125 46.496094 33.070312 C 46.496094 33.066406 46.492188 33.0625 46.484375 33.058594 C 46.367188 33.042969 46.046875 33.046875 45.679688 33.425781 C 45.675781 33.429688 45.671875 33.429688 45.667969 33.429688 C 45.664062 33.425781 45.660156 33.425781 45.660156 33.417969 C 45.679688 33.097656 46.796875 31.5625 48.859375 32.292969 C 48.863281 33.175781 49.0625 34.007812 49.449219 34.796875 C 49.449219 34.796875 48.707031 35.90625 46.519531 35.644531 Z M 50.875 32.855469 C 50.875 32.863281 50.871094 32.867188 50.863281 32.863281 C 50.855469 32.863281 50.851562 32.859375 50.851562 32.851562 C 50.890625 32.316406 50.867188 31.707031 50.648438 31.265625 C 50.644531 31.261719 50.640625 31.261719 50.636719 31.261719 C 50.628906 31.265625 50.628906 31.269531 50.625 31.273438 C 50.660156 31.695312 50.714844 32.554688 50.492188 33.035156 C 50.410156 33.199219 50.277344 33.289062 50.09375 33.300781 C 49.914062 33.3125 49.769531 33.238281 49.671875 33.082031 C 49.496094 32.785156 49.40625 32.464844 49.398438 32.117188 C 49.320312 30.644531 50.347656 27.976562 50.039062 26.507812 C 50.035156 26.496094 50.039062 26.492188 50.046875 26.488281 C 50.058594 26.484375 50.066406 26.488281 50.066406 26.496094 C 50.386719 27.234375 51.648438 30.660156 50.875 32.855469 Z M 55.046875 25.550781 C 54.167969 25.632812 52.867188 24.484375 51.964844 22.75 C 51.0625 21.015625 50.859375 19.289062 51.425781 18.609375 C 51.429688 18.605469 51.433594 18.605469 51.441406 18.605469 C 51.445312 18.609375 51.449219 18.613281 51.445312 18.621094 C 51.28125 19.679688 51.570312 21.136719 52.316406 22.566406 C 53.0625 23.996094 54.089844 25.0625 55.050781 25.527344 C 55.054688 25.53125 55.058594 25.535156 55.054688 25.542969 C 55.054688 25.546875 55.050781 25.550781 55.046875 25.550781 Z M 57.296875 24.496094 C 56.519531 24.90625 55.054688 23.636719 54.023438 21.664062 C 52.996094 19.691406 52.789062 17.761719 53.570312 17.351562 C 54.347656 16.941406 55.808594 18.210938 56.839844 20.183594 C 57.867188 22.15625 58.074219 24.085938 57.296875 24.496094 Z M 29.269531 24.320312 C 29.265625 24.320312 29.257812 24.324219 29.257812 24.328125 C 29.253906 24.335938 29.253906 24.34375 29.261719 24.347656 C 29.484375 24.570312 29.402344 25.234375 29.054688 25.902344 C 28.703125 26.574219 28.207031 27.019531 27.898438 26.960938 C 27.890625 26.960938 27.886719 26.960938 27.882812 26.96875 C 27.878906 26.972656 27.878906 26.980469 27.878906 26.984375 C 27.910156 27.042969 27.949219 27.085938 28.007812 27.117188 C 28.320312 27.285156 28.902344 26.796875 29.300781 26.035156 C 29.699219 25.269531 29.765625 24.515625 29.449219 24.347656 C 29.394531 24.320312 29.332031 24.3125 29.269531 24.320312 Z M 47.160156 27.117188 C 47.214844 27.085938 47.257812 27.042969 47.285156 26.984375 C 47.289062 26.980469 47.289062 26.972656 47.285156 26.96875 C 47.28125 26.960938 47.273438 26.960938 47.269531 26.960938 C 46.957031 27.019531 46.464844 26.574219 46.113281 25.902344 C 45.761719 25.234375 45.679688 24.570312 45.90625 24.347656 C 45.910156 24.34375 45.910156 24.335938 45.910156 24.328125 C 45.90625 24.324219 45.902344 24.320312 45.894531 24.320312 C 45.832031 24.308594 45.773438 24.320312 45.714844 24.347656 C 45.398438 24.515625 45.46875 25.269531 45.867188 26.035156 C 46.265625 26.796875 46.84375 27.285156 47.160156 27.117188 Z M 21.582031 17.925781 C 21.59375 17.929688 21.601562 17.929688 21.605469 17.921875 C 21.613281 17.914062 21.617188 17.90625 21.609375 17.898438 C 21.5625 17.816406 21.496094 17.753906 21.410156 17.707031 C 20.777344 17.375 19.515625 18.542969 18.589844 20.320312 C 17.664062 22.097656 17.425781 23.808594 18.058594 24.140625 C 18.140625 24.183594 18.230469 24.203125 18.324219 24.195312 C 18.335938 24.195312 18.339844 24.191406 18.34375 24.179688 C 18.34375 24.171875 18.34375 24.164062 18.332031 24.160156 C 17.777344 23.867188 18.054688 22.234375 18.953125 20.511719 C 19.851562 18.792969 21.027344 17.632812 21.582031 17.925781 Z M 55.132812 19.945312 C 54.957031 20.039062 55.023438 20.511719 55.28125 21.003906 C 55.535156 21.496094 55.886719 21.820312 56.0625 21.726562 C 56.238281 21.636719 56.171875 21.160156 55.914062 20.667969 C 55.65625 20.175781 55.308594 19.851562 55.132812 19.945312 Z M 56.578125 20.320312 C 55.652344 18.542969 54.386719 17.375 53.753906 17.707031 C 53.671875 17.753906 53.605469 17.816406 53.554688 17.898438 C 53.550781 17.90625 53.550781 17.914062 53.558594 17.921875 C 53.566406 17.929688 53.574219 17.929688 53.582031 17.925781 C 54.136719 17.632812 55.316406 18.792969 56.214844 20.511719 C 57.109375 22.234375 57.386719 23.867188 56.832031 24.15625 C 56.824219 24.160156 56.820312 24.167969 56.824219 24.179688 C 56.824219 24.191406 56.832031 24.195312 56.839844 24.195312 C 56.933594 24.203125 57.023438 24.183594 57.109375 24.140625 C 57.742188 23.808594 57.503906 22.097656 56.578125 20.320312 Z M 20.035156 19.945312 C 19.859375 19.851562 19.507812 20.175781 19.25 20.667969 C 18.996094 21.160156 18.929688 21.636719 19.105469 21.726562 C 19.277344 21.820312 19.628906 21.496094 19.886719 21.003906 C 20.140625 20.511719 20.207031 20.039062 20.035156 19.945312 Z M 20.035156 19.945312 " fill-opacity="1" fill-rule="evenodd"/></g><path fill="#ff0336" d="M 40.929688 18.816406 C 40.832031 18.816406 40.734375 18.839844 40.648438 18.886719 C 40.558594 18.9375 40.488281 19.003906 40.433594 19.085938 C 40.378906 19.171875 40.347656 19.265625 40.339844 19.367188 C 40.332031 19.46875 40.347656 19.5625 40.390625 19.65625 C 40.402344 19.679688 40.394531 19.699219 40.375 19.71875 C 39.617188 20.386719 38.070312 20.011719 37.894531 18.78125 C 37.890625 18.757812 37.898438 18.738281 37.917969 18.726562 C 38.003906 18.675781 38.074219 18.613281 38.128906 18.53125 C 38.183594 18.449219 38.21875 18.363281 38.234375 18.265625 C 38.253906 18.167969 38.246094 18.074219 38.222656 17.980469 C 38.195312 17.882812 38.152344 17.800781 38.089844 17.722656 C 38.027344 17.648438 37.949219 17.589844 37.863281 17.550781 C 37.773438 17.507812 37.679688 17.488281 37.582031 17.488281 C 37.484375 17.488281 37.394531 17.507812 37.304688 17.550781 C 37.214844 17.589844 37.140625 17.648438 37.078125 17.722656 C 37.015625 17.800781 36.96875 17.882812 36.945312 17.980469 C 36.917969 18.074219 36.914062 18.167969 36.929688 18.265625 C 36.945312 18.363281 36.984375 18.449219 37.039062 18.53125 C 37.09375 18.613281 37.164062 18.675781 37.246094 18.726562 C 37.265625 18.738281 37.277344 18.757812 37.273438 18.78125 C 37.097656 20.011719 35.550781 20.386719 34.789062 19.71875 C 34.769531 19.699219 34.765625 19.679688 34.777344 19.65625 C 34.851562 19.488281 34.847656 19.324219 34.773438 19.160156 C 34.695312 18.996094 34.574219 18.890625 34.398438 18.839844 C 34.226562 18.789062 34.0625 18.8125 33.910156 18.910156 C 33.761719 19.011719 33.671875 19.148438 33.648438 19.328125 C 33.621094 19.507812 33.667969 19.667969 33.785156 19.804688 C 33.90625 19.941406 34.054688 20.007812 34.234375 20.007812 C 34.261719 20.007812 34.285156 20.007812 34.3125 20.003906 C 34.335938 20 34.351562 20.007812 34.363281 20.027344 L 35.234375 21.34375 C 35.246094 21.355469 35.246094 21.371094 35.242188 21.382812 C 35.242188 21.398438 35.234375 21.410156 35.21875 21.417969 C 35.085938 21.507812 35.054688 21.625 35.128906 21.769531 C 35.203125 21.914062 35.3125 21.957031 35.464844 21.898438 C 36.875 21.355469 38.289062 21.355469 39.703125 21.898438 C 39.851562 21.957031 39.964844 21.914062 40.035156 21.769531 C 40.109375 21.625 40.078125 21.507812 39.945312 21.417969 C 39.914062 21.398438 39.910156 21.375 39.929688 21.34375 L 40.800781 20.027344 C 40.8125 20.007812 40.828125 20 40.851562 20.003906 C 40.878906 20.007812 40.90625 20.007812 40.929688 20.007812 C 41.09375 20.007812 41.234375 19.949219 41.351562 19.832031 C 41.464844 19.71875 41.523438 19.578125 41.523438 19.410156 C 41.523438 19.246094 41.464844 19.105469 41.351562 18.988281 C 41.234375 18.875 41.09375 18.816406 40.929688 18.816406 Z M 40.929688 18.816406 " fill-opacity="1" fill-rule="evenodd"/><g clip-path="url(#4d18967a0c)"><path fill="#ff0336" d="M 18.964844 36.660156 C 18.988281 36.632812 19.015625 36.628906 19.046875 36.652344 C 19.199219 36.734375 19.402344 36.863281 19.652344 37.03125 C 19.90625 37.195312 20.21875 37.386719 20.570312 37.617188 C 20.742188 37.734375 20.933594 37.847656 21.136719 37.96875 L 21.773438 38.355469 C 22 38.488281 22.242188 38.617188 22.488281 38.761719 L 22.867188 38.976562 C 22.996094 39.046875 23.128906 39.113281 23.265625 39.183594 C 25.925781 40.59375 28.730469 41.605469 31.679688 42.210938 C 33.601562 42.601562 35.542969 42.800781 37.507812 42.804688 C 39.46875 42.800781 41.410156 42.601562 43.332031 42.210938 C 46.28125 41.605469 49.085938 40.59375 51.746094 39.183594 C 51.882812 39.113281 52.019531 39.046875 52.148438 38.976562 L 52.523438 38.761719 C 52.769531 38.617188 53.011719 38.488281 53.238281 38.355469 L 53.875 37.96875 C 54.078125 37.847656 54.269531 37.734375 54.445312 37.617188 C 54.792969 37.386719 55.105469 37.195312 55.359375 37.03125 C 55.609375 36.863281 55.8125 36.734375 55.964844 36.652344 C 55.996094 36.628906 56.023438 36.632812 56.046875 36.660156 C 56.0625 36.695312 56.050781 36.726562 56.019531 36.746094 C 53.410156 38.871094 50.515625 40.5 47.339844 41.628906 C 44.160156 42.753906 40.882812 43.316406 37.503906 43.320312 C 34.128906 43.316406 30.851562 42.753906 27.671875 41.628906 C 24.492188 40.5 21.601562 38.871094 18.992188 36.746094 C 18.957031 36.726562 18.949219 36.695312 18.964844 36.660156 Z M 18.964844 36.660156 " fill-opacity="1" fill-rule="evenodd"/></g><g clip-path="url(#efc4780834)"><path fill="#ff0336" d="M 62.992188 45.035156 C 63.015625 45.054688 63.007812 45.09375 62.972656 45.128906 C 62.804688 45.300781 62.566406 45.53125 62.257812 45.8125 C 61.945312 46.089844 61.554688 46.402344 61.101562 46.769531 C 60.875 46.957031 60.625 47.136719 60.359375 47.332031 L 59.511719 47.9375 C 59.214844 48.144531 58.890625 48.347656 58.558594 48.566406 L 58.042969 48.898438 C 57.871094 49.007812 57.683594 49.113281 57.5 49.222656 C 55.832031 50.21875 54.09375 51.074219 52.285156 51.789062 C 50.15625 52.636719 47.96875 53.292969 45.722656 53.75 C 43.011719 54.304688 40.273438 54.585938 37.503906 54.589844 C 34.738281 54.585938 32 54.304688 29.289062 53.75 C 27.042969 53.292969 24.855469 52.636719 22.726562 51.789062 C 20.917969 51.074219 19.179688 50.21875 17.511719 49.222656 C 17.328125 49.113281 17.140625 49.007812 16.964844 48.898438 L 16.453125 48.566406 C 16.121094 48.351562 15.796875 48.144531 15.5 47.9375 L 14.652344 47.332031 C 14.386719 47.136719 14.136719 46.957031 13.910156 46.769531 C 13.457031 46.402344 13.066406 46.089844 12.753906 45.8125 C 12.445312 45.53125 12.207031 45.300781 12.042969 45.132812 C 12.007812 45.09375 11.996094 45.054688 12.019531 45.035156 C 12.039062 45.019531 12.085938 45.03125 12.128906 45.0625 C 15.707031 47.976562 19.671875 50.210938 24.03125 51.757812 C 28.386719 53.300781 32.878906 54.074219 37.507812 54.074219 C 42.132812 54.074219 46.625 53.300781 50.984375 51.757812 C 55.339844 50.210938 59.308594 47.976562 62.886719 45.0625 C 62.925781 45.03125 62.972656 45.019531 62.992188 45.035156 Z M 62.992188 45.035156 " fill-opacity="1" fill-rule="evenodd"/></g><g clip-path="url(#42d27a3edf)"><path fill="#ff0336" d="M 35.167969 56.808594 C 35.164062 56.785156 35.148438 56.773438 35.125 56.773438 L 34.644531 56.773438 L 34.464844 56.246094 C 34.460938 56.222656 34.445312 56.210938 34.421875 56.210938 C 34.398438 56.210938 34.386719 56.222656 34.378906 56.246094 L 34.199219 56.773438 L 33.71875 56.773438 C 33.695312 56.773438 33.679688 56.785156 33.675781 56.808594 C 33.667969 56.828125 33.671875 56.847656 33.691406 56.859375 L 34.078125 57.140625 L 33.910156 57.652344 C 33.902344 57.671875 33.90625 57.6875 33.925781 57.703125 C 33.933594 57.707031 33.941406 57.710938 33.953125 57.710938 C 33.964844 57.710938 33.972656 57.707031 33.980469 57.703125 L 34.421875 57.386719 L 34.863281 57.703125 C 34.871094 57.710938 34.878906 57.710938 34.890625 57.710938 C 34.933594 57.710938 34.949219 57.691406 34.933594 57.652344 L 34.765625 57.140625 L 35.152344 56.859375 C 35.171875 56.847656 35.175781 56.828125 35.167969 56.808594 Z M 35.167969 56.808594 " fill-opacity="1" fill-rule="evenodd"/></g><g clip-path="url(#f4fbda8de6)"><path fill="#ff0336" d="M 41.449219 56.808594 C 41.445312 56.785156 41.429688 56.773438 41.40625 56.773438 L 40.925781 56.773438 L 40.746094 56.246094 C 40.742188 56.222656 40.726562 56.210938 40.703125 56.210938 C 40.679688 56.210938 40.667969 56.222656 40.660156 56.246094 L 40.480469 56.773438 L 40 56.773438 C 39.976562 56.773438 39.960938 56.785156 39.957031 56.808594 C 39.949219 56.828125 39.953125 56.847656 39.972656 56.859375 L 40.359375 57.140625 L 40.191406 57.652344 C 40.183594 57.671875 40.1875 57.6875 40.207031 57.703125 C 40.214844 57.707031 40.222656 57.710938 40.234375 57.710938 C 40.246094 57.710938 40.253906 57.707031 40.261719 57.703125 L 40.703125 57.386719 L 41.144531 57.703125 C 41.152344 57.710938 41.160156 57.710938 41.171875 57.710938 C 41.214844 57.710938 41.230469 57.691406 41.214844 57.652344 L 41.046875 57.140625 L 41.433594 56.859375 C 41.453125 56.847656 41.457031 56.828125 41.449219 56.808594 Z M 41.449219 56.808594 " fill-opacity="1" fill-rule="evenodd"/></g><g clip-path="url(#40c4995466)"><path fill="#ff0336" d="M 38.605469 57.105469 C 38.59375 57.074219 38.570312 57.054688 38.539062 57.058594 L 37.816406 57.058594 L 37.550781 56.261719 C 37.539062 56.230469 37.515625 56.214844 37.484375 56.214844 C 37.449219 56.214844 37.425781 56.230469 37.417969 56.261719 L 37.152344 57.054688 L 36.429688 57.054688 C 36.394531 57.054688 36.371094 57.074219 36.363281 57.105469 C 36.351562 57.136719 36.359375 57.164062 36.386719 57.183594 L 36.96875 57.601562 L 36.714844 58.371094 C 36.703125 58.402344 36.710938 58.429688 36.738281 58.449219 C 36.75 58.457031 36.765625 58.460938 36.78125 58.460938 C 36.796875 58.460938 36.808594 58.457031 36.820312 58.449219 L 37.484375 57.972656 L 38.144531 58.449219 C 38.15625 58.457031 38.171875 58.460938 38.1875 58.460938 C 38.25 58.460938 38.273438 58.429688 38.253906 58.371094 L 37.996094 57.601562 L 38.578125 57.183594 C 38.605469 57.164062 38.617188 57.136719 38.605469 57.105469 Z M 38.605469 57.105469 " fill-opacity="1" fill-rule="evenodd"/></g><g fill="#ffffff" fill-opacity="1"><g transform="translate(11.72294, 40.913353)"><g><path d="M 4.449219 -4.105469 C 4.386719 -4.160156 4.328125 -4.152344 4.277344 -4.097656 L 0.359375 0.167969 C 0.308594 0.222656 0.304688 0.28125 0.367188 0.335938 L 0.945312 0.867188 C 1 0.917969 1.0625 0.914062 1.113281 0.859375 L 5.03125 -3.40625 C 5.082031 -3.460938 5.082031 -3.523438 5.027344 -3.574219 Z M 4.449219 -4.105469 "/></g></g></g><g fill="#ffffff" fill-opacity="1"><g transform="translate(14.049352, 43.030011)"><g><path d="M 5.726562 -3.292969 C 5.660156 -3.34375 5.601562 -3.328125 5.558594 -3.265625 L 3.6875 -0.695312 L 3.648438 -0.722656 L 4.609375 -3.988281 C 4.628906 -4.054688 4.609375 -4.105469 4.554688 -4.144531 L 3.953125 -4.585938 C 3.890625 -4.628906 3.828125 -4.621094 3.785156 -4.558594 L 0.375 0.125 C 0.332031 0.183594 0.339844 0.25 0.402344 0.292969 L 1.035156 0.753906 C 1.105469 0.804688 1.160156 0.789062 1.207031 0.726562 L 3.085938 -1.859375 L 3.117188 -1.835938 L 2.15625 1.445312 C 2.132812 1.515625 2.152344 1.566406 2.207031 1.605469 L 2.8125 2.046875 C 2.871094 2.089844 2.933594 2.078125 2.980469 2.019531 L 6.386719 -2.664062 C 6.433594 -2.726562 6.421875 -2.789062 6.359375 -2.832031 Z M 5.726562 -3.292969 "/></g></g></g><g fill="#ffffff" fill-opacity="1"><g transform="translate(18.50535, 46.144246)"><g><path d="M 5.460938 -3.953125 C 5.378906 -3.996094 5.3125 -3.980469 5.25 -3.910156 L 2.671875 -0.699219 L 3.839844 -4.648438 C 3.863281 -4.738281 3.835938 -4.804688 3.753906 -4.84375 L 3.121094 -5.175781 C 3.019531 -5.230469 2.953125 -5.195312 2.921875 -5.09375 L 1.394531 0.574219 C 1.371094 0.664062 1.398438 0.730469 1.476562 0.773438 L 2.144531 1.121094 C 2.226562 1.164062 2.292969 1.148438 2.355469 1.078125 L 6.140625 -3.414062 C 6.207031 -3.496094 6.195312 -3.570312 6.09375 -3.621094 Z M 5.460938 -3.953125 "/></g></g></g><g fill="#ffffff" fill-opacity="1"><g transform="translate(23.410689, 48.541907)"><g><path d="M 2.621094 -5.457031 C 2.542969 -5.484375 2.492188 -5.457031 2.464844 -5.386719 L 0.394531 0.0234375 C 0.367188 0.09375 0.386719 0.148438 0.464844 0.179688 L 1.199219 0.457031 C 1.269531 0.484375 1.324219 0.460938 1.351562 0.390625 L 3.421875 -5.019531 C 3.449219 -5.089844 3.425781 -5.148438 3.355469 -5.175781 Z M 2.621094 -5.457031 "/></g></g></g><g fill="#ffffff" fill-opacity="1"><g transform="translate(26.346895, 49.644487)"><g><path d="M 4.535156 -3.929688 C 4.714844 -4.617188 4.4375 -5.078125 3.757812 -5.257812 L 2.941406 -5.46875 C 2.253906 -5.648438 1.789062 -5.378906 1.609375 -4.691406 L 0.636719 -0.957031 C 0.460938 -0.269531 0.738281 0.191406 1.421875 0.371094 L 2.242188 0.582031 C 2.917969 0.757812 3.386719 0.492188 3.566406 -0.195312 L 3.769531 -0.984375 C 3.789062 -1.054688 3.757812 -1.109375 3.683594 -1.128906 L 2.953125 -1.320312 C 2.875 -1.339844 2.824219 -1.304688 2.804688 -1.234375 L 2.65625 -0.648438 C 2.601562 -0.453125 2.476562 -0.382812 2.285156 -0.433594 L 1.90625 -0.53125 C 1.71875 -0.582031 1.640625 -0.703125 1.691406 -0.898438 L 2.558594 -4.226562 C 2.605469 -4.417969 2.726562 -4.496094 2.925781 -4.445312 L 3.304688 -4.34375 C 3.492188 -4.296875 3.570312 -4.167969 3.519531 -3.976562 L 3.367188 -3.394531 C 3.347656 -3.320312 3.375 -3.269531 3.453125 -3.246094 L 4.183594 -3.058594 C 4.257812 -3.039062 4.3125 -3.070312 4.332031 -3.144531 Z M 4.535156 -3.929688 "/></g></g></g><g fill="#ffffff" fill-opacity="1"><g transform="translate(31.409371, 50.850413)"><g><path d="M 1.058594 -5.949219 C 0.984375 -5.957031 0.933594 -5.917969 0.925781 -5.84375 L 0.835938 -5.09375 C 0.828125 -5.019531 0.867188 -4.96875 0.941406 -4.960938 L 1.808594 -4.855469 L 1.226562 0.0234375 C 1.21875 0.105469 1.257812 0.148438 1.332031 0.160156 L 2.113281 0.25 C 2.195312 0.261719 2.234375 0.230469 2.246094 0.144531 L 2.828125 -4.734375 L 3.695312 -4.632812 C 3.777344 -4.621094 3.820312 -4.664062 3.832031 -4.738281 L 3.921875 -5.488281 C 3.929688 -5.5625 3.898438 -5.609375 3.816406 -5.621094 Z M 1.058594 -5.949219 "/></g></g></g><g fill="#ffffff" fill-opacity="1"><g transform="translate(36.280083, 51.34422)"><g><path d="M 2.445312 -6.074219 C 2.363281 -6.074219 2.296875 -6.003906 2.296875 -5.921875 L 2.375 -1.335938 C 2.378906 -1.132812 2.273438 -1.035156 2.078125 -1.03125 L 1.6875 -1.023438 C 1.492188 -1.019531 1.382812 -1.117188 1.378906 -1.320312 L 1.304688 -5.90625 C 1.300781 -5.988281 1.234375 -6.054688 1.148438 -6.054688 L 0.425781 -6.042969 C 0.34375 -6.039062 0.277344 -5.96875 0.277344 -5.886719 L 0.359375 -1.09375 C 0.371094 -0.382812 0.753906 -0.0117188 1.460938 -0.0234375 L 2.308594 -0.0390625 C 3.015625 -0.0507812 3.386719 -0.433594 3.375 -1.144531 L 3.292969 -5.9375 C 3.292969 -6.023438 3.222656 -6.089844 3.140625 -6.085938 Z M 2.445312 -6.074219 "/></g></g></g><g fill="#ffffff" fill-opacity="1"><g transform="translate(41.486446, 51.155181)"><g><path d="M 0.5 -6.1875 C -0.191406 -6.078125 -0.511719 -5.644531 -0.402344 -4.945312 L -0.121094 -3.1875 C -0.101562 -3.046875 -0.0195312 -2.96875 0.121094 -2.945312 L 1.980469 -2.640625 L 2.136719 -1.652344 C 2.167969 -1.449219 2.078125 -1.335938 1.886719 -1.304688 L 1.527344 -1.25 C 1.339844 -1.21875 1.214844 -1.300781 1.183594 -1.5 L 1.09375 -2.074219 C 1.078125 -2.15625 1.035156 -2.1875 0.953125 -2.175781 L 0.179688 -2.050781 C 0.105469 -2.039062 0.0664062 -1.996094 0.078125 -1.914062 L 0.203125 -1.132812 C 0.3125 -0.429688 0.753906 -0.117188 1.445312 -0.230469 L 2.277344 -0.359375 C 2.980469 -0.472656 3.292969 -0.902344 3.183594 -1.601562 L 2.910156 -3.324219 C 2.886719 -3.464844 2.808594 -3.535156 2.671875 -3.570312 L 0.808594 -3.867188 L 0.644531 -4.898438 C 0.613281 -5.089844 0.710938 -5.210938 0.894531 -5.242188 L 1.253906 -5.296875 C 1.453125 -5.332031 1.566406 -5.242188 1.597656 -5.046875 L 1.691406 -4.46875 C 1.703125 -4.390625 1.753906 -4.355469 1.828125 -4.367188 L 2.601562 -4.488281 C 2.683594 -4.503906 2.714844 -4.550781 2.703125 -4.628906 L 2.578125 -5.417969 C 2.46875 -6.117188 2.035156 -6.429688 1.335938 -6.320312 Z M 0.5 -6.1875 "/></g></g></g><g fill="#ffffff" fill-opacity="1"><g transform="translate(46.528487, 50.226107)"><g/></g></g><g fill="#ffffff" fill-opacity="1"><g transform="translate(49.658482, 49.340615)"><g><path d="M -0.0585938 -1.148438 C 0.207031 -0.492188 0.699219 -0.28125 1.355469 -0.546875 L 2.277344 -0.921875 C 2.929688 -1.183594 3.144531 -1.679688 2.878906 -2.335938 L 2.09375 -4.277344 C 2.0625 -4.355469 2.003906 -4.375 1.9375 -4.347656 L 0.761719 -3.871094 C 0.683594 -3.839844 0.664062 -3.789062 0.695312 -3.714844 L 0.976562 -3.015625 C 1.003906 -2.945312 1.058594 -2.917969 1.132812 -2.949219 L 1.496094 -3.09375 L 1.875 -2.15625 C 1.953125 -1.96875 1.890625 -1.839844 1.710938 -1.765625 L 1.207031 -1.5625 C 1.023438 -1.488281 0.890625 -1.539062 0.8125 -1.726562 L -0.476562 -4.917969 C -0.546875 -5.097656 -0.496094 -5.234375 -0.308594 -5.308594 L 0.195312 -5.511719 C 0.375 -5.585938 0.515625 -5.527344 0.585938 -5.347656 L 0.800781 -4.816406 C 0.832031 -4.746094 0.882812 -4.71875 0.960938 -4.75 L 1.660156 -5.03125 C 1.730469 -5.058594 1.753906 -5.117188 1.726562 -5.1875 L 1.429688 -5.914062 C 1.164062 -6.570312 0.667969 -6.777344 0.015625 -6.515625 L -0.90625 -6.140625 C -1.5625 -5.875 -1.769531 -5.386719 -1.503906 -4.726562 Z M -0.0585938 -1.148438 "/></g></g></g><g fill="#ffffff" fill-opacity="1"><g transform="translate(54.6099, 47.229915)"><g><path d="M -0.40625 -6.761719 C -0.484375 -6.714844 -0.511719 -6.65625 -0.496094 -6.566406 L -0.125 -4.273438 L -1.949219 -5.710938 C -2.019531 -5.769531 -2.082031 -5.773438 -2.160156 -5.726562 L -2.8125 -5.347656 C -2.910156 -5.289062 -2.917969 -5.203125 -2.828125 -5.136719 L 0.0625 -2.941406 L 1.257812 -0.914062 C 1.304688 -0.828125 1.378906 -0.808594 1.460938 -0.859375 L 2.085938 -1.226562 C 2.171875 -1.277344 2.191406 -1.347656 2.140625 -1.433594 L 0.949219 -3.460938 L 0.4375 -7.054688 C 0.421875 -7.167969 0.339844 -7.199219 0.242188 -7.140625 Z M -0.40625 -6.761719 "/></g></g></g><g fill="#ffffff" fill-opacity="1"><g transform="translate(59.419034, 44.302836)"><g><path d="M -1.15625 -6.894531 C -1.226562 -6.835938 -1.238281 -6.765625 -1.195312 -6.683594 L 0.566406 -3.261719 L -2.480469 -5.609375 C -2.554688 -5.664062 -2.625 -5.667969 -2.695312 -5.609375 L -3.460938 -4.96875 C -3.535156 -4.90625 -3.542969 -4.832031 -3.480469 -4.757812 L 0.191406 -0.355469 C 0.253906 -0.28125 0.328125 -0.277344 0.40625 -0.339844 L 0.9375 -0.78125 C 1.011719 -0.84375 1.019531 -0.917969 0.957031 -0.996094 L -1.21875 -3.601562 L -1.175781 -3.632812 L 1.582031 -1.496094 C 1.65625 -1.441406 1.726562 -1.441406 1.796875 -1.496094 L 2.078125 -1.734375 C 2.148438 -1.792969 2.160156 -1.859375 2.117188 -1.945312 L 0.507812 -5.039062 L 0.550781 -5.074219 L 2.722656 -2.46875 C 2.785156 -2.394531 2.859375 -2.386719 2.9375 -2.449219 L 3.472656 -2.898438 C 3.550781 -2.960938 3.554688 -3.035156 3.492188 -3.109375 L -0.179688 -7.511719 C -0.242188 -7.585938 -0.316406 -7.59375 -0.390625 -7.53125 Z M -1.15625 -6.894531 "/></g></g></g></svg>